<svg xmlns="http://www.w3.org/2000/svg" xmlns:xlink="http://www.w3.org/1999/xlink" width="750" height="300" viewBox="0 0 750 300">
  <defs>
    <style>
      .cls-1 {
        clip-path: url(#clip-Dialogue_box2);
      }

      .cls-2 {
        opacity: 0.4;
      }

      .cls-3, .cls-4, .cls-6 {
        fill: none;
        stroke: #fff;
      }

      .cls-3, .cls-4 {
        stroke-width: 2px;
      }

      .cls-4 {
        opacity: 0.9;
      }

      .cls-5 {
        fill: #fff;
      }
    </style>
    <clipPath id="clip-Dialogue_box2">
      <rect width="750" height="300"/>
    </clipPath>
  </defs>
  <g id="Dialogue_box2" data-name="Dialogue box2" class="cls-1">
    <path id="패스_36" data-name="패스 36" class="cls-2" d="M0,0H697.084V230.5H0Z" transform="translate(26.458 34.677)"/>
    <path id="합치기_18" data-name="합치기 18" class="cls-3" d="M1.1,1.169h0v0h0v0Z" transform="translate(25.356 33.712)"/>
    <path id="합치기_19" data-name="합치기 19" class="cls-4" d="M1.1,1.169h0v0h0v0Z" transform="translate(724.554 33.712) rotate(90)"/>
    <path id="합치기_20" data-name="합치기 20" class="cls-3" d="M1.1,1.169h0v0h0v0Z" transform="translate(25.356 266.034) rotate(-90)"/>
    <path id="합치기_21" data-name="합치기 21" class="cls-4" d="M1.1,1.169h0v0h0v0Z" transform="translate(724.554 266.288) rotate(180)"/>
    <circle id="타원_22" data-name="타원 22" class="cls-5" cx="3" cy="3" r="3" transform="translate(23.458 146.927)"/>
    <path id="합치기_22" data-name="합치기 22" class="cls-6" d="M.507.537h0v0h0v0Z" transform="translate(40.356 49.712)"/>
    <path id="합치기_23" data-name="합치기 23" class="cls-6" d="M.507.537h0v0h0v0Z" transform="translate(707.67 49.712) rotate(90)"/>
    <path id="합치기_24" data-name="합치기 24" class="cls-6" d="M.507.537h0v0h0v0Z" transform="translate(707.67 249.684) rotate(180)"/>
    <path id="합치기_25" data-name="합치기 25" class="cls-6" d="M.507.537h0v0h0v0Z" transform="translate(40.356 249.683) rotate(-90)"/>
    <circle id="타원_23" data-name="타원 23" class="cls-5" cx="3" cy="3" r="3" transform="translate(720.542 146.927)"/>
  </g>
</svg>
