<svg xmlns="http://www.w3.org/2000/svg" xmlns:xlink="http://www.w3.org/1999/xlink" width="250" height="250" viewBox="0 0 250 250">
  <defs>
    <style>
      .cls-1 {
        clip-path: url(#clip-Heart);
      }

      .cls-2 {
        fill: url(#radial-gradient);
      }

      .cls-3 {
        fill: #fff;
      }

      .cls-3, .cls-4 {
        opacity: 0.82;
      }

      .cls-4 {
        fill: none;
        stroke: #fff;
        stroke-linecap: round;
        stroke-width: 2px;
      }

      .cls-5, .cls-6 {
        stroke: none;
      }

      .cls-6 {
        fill: #004e6b;
      }
    </style>
    <radialGradient id="radial-gradient" cx="0.5" cy="0.521" r="0.533" gradientUnits="objectBoundingBox">
      <stop offset="0" stop-color="#eefbff"/>
      <stop offset="0.525" stop-color="#8ae3ff"/>
      <stop offset="1" stop-color="#4eb8ff"/>
    </radialGradient>
    <clipPath id="clip-Heart">
      <rect width="250" height="250"/>
    </clipPath>
  </defs>
  <g id="Heart" class="cls-1">
    <g id="패스_32" data-name="패스 32" class="cls-2" transform="translate(35.484 42.294)">
      <path class="cls-5" d="M 89.51149749755859 163.1116180419922 C 78.10352325439453 155.3386383056641 67.61175537109375 147.4662628173828 58.31614685058594 139.703857421875 C 49.27544021606445 132.1543273925781 41.15608596801758 124.5338516235352 34.18361663818359 117.054084777832 C 21.31593894958496 103.2502365112305 12.02861595153809 89.61761474609375 6.579675197601318 76.53496551513672 C 4.216616153717041 70.85943603515625 2.505351543426514 65.16358947753906 1.493528008460999 59.6058235168457 C 0.5359103679656982 54.34564590454102 0.1944397836923599 49.15823364257812 0.4786456525325775 44.18764495849609 C 0.7492339015007019 39.4549674987793 1.587028026580811 34.89785003662109 2.968733787536621 30.64291000366211 C 4.297792911529541 26.55008697509766 6.127145767211914 22.74214553833008 8.405998229980469 19.32485198974609 C 10.1954984664917 16.64138031005859 12.26411628723145 14.19908714294434 14.55438137054443 12.06588077545166 C 16.82549858093262 9.950498580932617 19.32373428344727 8.130380630493164 21.97970390319824 6.656027793884277 C 24.64661598205566 5.175616264343262 27.48364639282227 4.037792682647705 30.41205787658691 3.27420449256897 C 33.38970565795898 2.497792720794678 36.47905731201172 2.104116201400757 39.59429168701172 2.104116201400757 C 43.65758514404297 2.104116201400757 47.78058624267578 2.770410299301147 51.84873199462891 4.084498405456543 C 56.12094116210938 5.464498519897461 60.34402847290039 7.56411600112915 64.40067291259766 10.32496929168701 C 68.69420623779297 13.24705696105957 72.83682250976562 16.93561553955078 76.71343994140625 21.28823471069336 C 80.82791137695312 25.90791130065918 84.69676208496094 31.33785247802734 88.21247100830078 37.4272346496582 L 89.51149749755859 39.6772346496582 L 90.81053161621094 37.4272346496582 C 94.33788299560547 31.31770515441895 98.21708679199219 25.8696460723877 102.3403778076172 21.23441123962402 C 106.2251129150391 16.86732292175293 110.3744659423828 13.16641044616699 114.6730880737305 10.23446941375732 C 118.734260559082 7.464498519897461 122.9602661132812 5.357998371124268 127.2337036132812 3.973410367965698 C 131.3026123046875 2.655116319656372 135.4246215820312 1.986675024032593 139.4852294921875 1.986675024032593 C 142.5945892333984 1.986675024032593 145.6778564453125 2.379998683929443 148.6493530273438 3.155675172805786 C 151.5712585449219 3.918410301208496 154.4021453857422 5.054998397827148 157.0634155273438 6.533880710601807 C 159.7132873535156 8.006410598754883 162.2062683105469 9.824440002441406 164.4731140136719 11.93746948242188 C 166.7586212158203 14.06785106658936 168.8236999511719 16.50708770751953 170.611083984375 19.18738174438477 C 172.8947296142578 22.61188125610352 174.7280883789062 26.42917442321777 176.0602264404297 30.53320503234863 C 177.4449157714844 34.79914474487305 178.2845306396484 39.36826324462891 178.5557861328125 44.1136474609375 C 178.8406524658203 49.09720611572266 178.4985809326172 54.2974967956543 177.5390930175781 59.57014465332031 C 176.5252990722656 65.14099884033203 174.8108215332031 70.84885406494141 172.4432983398438 76.53514862060547 C 166.994384765625 89.61764526367188 157.7070617675781 103.2502365112305 144.8394165039062 117.054084777832 C 137.866943359375 124.5338516235352 129.74755859375 132.1543273925781 120.7068481445312 139.703857421875 C 111.411247253418 147.4662628173828 100.9194793701172 155.3386383056641 89.51149749755859 163.1116180419922 Z"/>
      <path class="cls-6" d="M 89.51149749755859 161.2952117919922 C 111.5805511474609 146.1891479492188 129.8200225830078 130.9664001464844 143.7422180175781 116.0312805175781 C 156.4878692626953 102.358283996582 165.678466796875 88.87577819824219 171.0585327148438 75.95856475830078 C 173.3848724365234 70.3712158203125 175.0687103271484 64.76699829101562 176.0633087158203 59.30156326293945 C 177.0015869140625 54.14559555053711 177.3363342285156 49.06443786621094 177.0582427978516 44.19924926757812 C 176.7943115234375 39.58215713500977 175.9785308837891 35.14002990722656 174.6334991455078 30.99631309509277 C 173.3437805175781 27.0229377746582 171.570556640625 23.32984352111816 169.3631286621094 20.01959419250488 C 167.6401824951172 17.43593788146973 165.65087890625 15.08590698242188 163.4503784179688 13.03471946716309 C 161.2724304199219 11.00459384918213 158.8784027099609 9.25853157043457 156.3348083496094 7.84503173828125 C 153.78369140625 6.427375316619873 151.0704650878906 5.337969303131104 148.2704620361328 4.60703182220459 C 145.4225921630859 3.863625526428223 142.4668121337891 3.486687898635864 139.4852142333984 3.486687898635864 C 135.5818481445312 3.486687898635864 131.6153717041016 4.130562782287598 127.6960296630859 5.400406837463379 C 123.55859375 6.740906715393066 119.4614028930664 8.784250259399414 115.518310546875 11.47368812561035 C 111.3209991455078 14.33650016784668 107.2643737792969 17.95590591430664 103.4611206054688 22.23137474060059 C 99.40534210205078 26.79068756103516 95.58612060546875 32.15565490722656 92.10955810546875 38.17721939086914 L 89.51149749755859 42.67721939086914 L 86.91343688964844 38.17721939086914 C 83.44865417480469 32.17606353759766 79.64002990722656 26.82946968078613 75.59330749511719 22.28587532043457 C 71.79837036132812 18.02499961853027 67.74868774414062 14.41796875 63.55671691894531 11.56503200531006 C 59.61818313598633 8.88453197479248 55.52393341064453 6.847969055175781 51.3876838684082 5.511875629425049 C 47.46868515014648 4.245969295501709 43.50083923339844 3.604094266891479 39.59427642822266 3.604094266891479 C 36.60668563842773 3.604094266891479 33.64468383789062 3.981437921524048 30.79052734375 4.725687980651855 C 27.9839973449707 5.457500457763672 25.26452827453613 6.548187732696533 22.70771598815918 7.96750020980835 C 20.15809059143066 9.3828125 17.75887107849121 11.13100051879883 15.57674694061279 13.16350078582764 C 13.37162208557129 15.21740627288818 11.37893390655518 17.57037544250488 9.653965950012207 20.15706253051758 C 7.451309204101562 23.46012496948242 5.682090282440186 27.1439380645752 4.395402908325195 31.10615730285645 C 3.053402900695801 35.23884582519531 2.239465475082397 39.66890716552734 1.976184248924255 44.27325057983398 C 1.698778033256531 49.12543869018555 2.032902956008911 54.19365692138672 2.96927809715271 59.337158203125 C 3.961903095245361 64.78949737548828 5.642559051513672 70.38178253173828 7.964371681213379 75.95822143554688 C 13.34455966949463 88.87574768066406 22.53515243530273 102.358283996582 35.28080749511719 116.0312805175781 C 49.2030029296875 130.9663696289062 67.44244384765625 146.1891479492188 89.51149749755859 161.2952117919922 M 89.51149749755859 164.9253692626953 C 41.04115295410156 132.0501556396484 15.62040328979492 102.1425323486328 5.194965362548828 77.11168670654297 C -12.6851978302002 34.16758346557617 10.13490104675293 0.604095995426178 39.59428787231445 0.604095995426178 C 56.15097427368164 0.604095995426178 74.79945373535156 11.19521427154541 89.51149749755859 36.67721939086914 C 104.2711791992188 11.11273765563965 122.9375991821289 0.486676812171936 139.4852142333984 0.486676812171936 C 168.9518890380859 0.486676812171936 191.7133636474609 34.15530014038086 173.8280639648438 77.11168670654297 C 163.4026184082031 102.1425323486328 137.9818725585938 132.0501556396484 89.51149749755859 164.9253692626953 Z"/>
    </g>
    <ellipse id="타원_20" data-name="타원 20" class="cls-3" cx="6.609" cy="4.31" rx="6.609" ry="4.31" transform="translate(188.531 57.508) rotate(47)"/>
    <path id="패스_33" data-name="패스 33" class="cls-4" d="M344.389,190.936s8.888,16.413-1.057,33.939" transform="translate(-146.647 -115.14)"/>
  </g>
</svg>
