<svg xmlns="http://www.w3.org/2000/svg" xmlns:xlink="http://www.w3.org/1999/xlink" width="472" height="185" viewBox="0 0 472 185">
  <defs>
    <style>
      .cls-1 {
        clip-path: url(#clip-Item_Bar-1);
      }

      .cls-2, .cls-5 {
        fill: #fff;
      }

      .cls-2 {
        opacity: 0.7;
      }

      .cls-3, .cls-4 {
        fill: none;
        stroke: #fff;
      }

      .cls-3 {
        stroke-width: 3px;
      }

      .cls-4 {
        stroke-width: 2px;
        stroke-dasharray: 10 7;
      }
    </style>
    <clipPath id="clip-Item_Bar-1">
      <rect width="472" height="185"/>
    </clipPath>
  </defs>
  <g id="Item_Bar-1" data-name="Item Bar-1" class="cls-1">
    <path id="패스_20" data-name="패스 20" class="cls-2" d="M10.35,0h358.8A10.515,10.515,0,0,1,379.5,10.673V87.759a10.515,10.515,0,0,1-10.35,10.673H10.35A10.515,10.515,0,0,1,0,87.759V10.673A10.515,10.515,0,0,1,10.35,0Z" transform="translate(47 37.214)"/>
    <line id="선_30" data-name="선 30" class="cls-3" y2="88.945" transform="translate(141.875 41.957)"/>
    <line id="선_31" data-name="선 31" class="cls-3" y2="88.945" transform="translate(236.75 41.957)"/>
    <line id="선_32" data-name="선 32" class="cls-3" y2="88.945" transform="translate(331.625 41.957)"/>
    <path id="패스_31" data-name="패스 31" class="cls-4" d="M10.35,0h358.8A10.515,10.515,0,0,1,379.5,10.673V87.759a10.515,10.515,0,0,1-10.35,10.673H10.35A10.515,10.515,0,0,1,0,87.759V10.673A10.515,10.515,0,0,1,10.35,0Z" transform="translate(47 37.214)"/>
    <path id="다각형_13" data-name="다각형 13" class="cls-5" d="M14.568,4.508a3,3,0,0,1,5.2,0L31.742,25.281a3,3,0,0,1-2.6,4.5H5.192a3,3,0,0,1-2.6-4.5Z" transform="translate(78.858 120.757)"/>
    <path id="다각형_14" data-name="다각형 14" d="M14.568,4.508a3,3,0,0,1,5.2,0L31.742,25.281a3,3,0,0,1-2.6,4.5H5.192a3,3,0,0,1-2.6-4.5Z" transform="translate(171.779 120.757)"/>
    <path id="다각형_15" data-name="다각형 15" d="M14.568,4.508a3,3,0,0,1,5.2,0L31.742,25.281a3,3,0,0,1-2.6,4.5H5.192a3,3,0,0,1-2.6-4.5Z" transform="translate(266.654 120.757)"/>
    <path id="다각형_16" data-name="다각형 16" d="M14.568,4.508a3,3,0,0,1,5.2,0L31.742,25.281a3,3,0,0,1-2.6,4.5H5.192a3,3,0,0,1-2.6-4.5Z" transform="translate(361.529 120.757)"/>
  </g>
</svg>
