<svg xmlns="http://www.w3.org/2000/svg" xmlns:xlink="http://www.w3.org/1999/xlink" width="200" height="200" viewBox="0 0 200 200">
  <defs>
    <style>
      .cls-1 {
        clip-path: url(#clip-Respawn);
      }

      .cls-2, .cls-4, .cls-6 {
        fill: none;
      }

      .cls-2 {
        stroke: #fff;
        stroke-width: 3px;
      }

      .cls-3 {
        fill: #fff;
      }

      .cls-4 {
        stroke: #000;
      }

      .cls-5, .cls-7 {
        stroke: none;
      }

      .cls-7 {
        fill: #fff;
      }
    </style>
    <clipPath id="clip-Respawn">
      <rect width="200" height="200"/>
    </clipPath>
  </defs>
  <g id="Respawn" class="cls-1">
    <g id="타원_24" data-name="타원 24" class="cls-2" transform="translate(15 16)">
      <ellipse class="cls-5" cx="85" cy="16" rx="85" ry="16"/>
      <ellipse class="cls-6" cx="85" cy="16" rx="83.5" ry="14.5"/>
    </g>
    <g id="합치기_26" data-name="합치기 26" class="cls-3" transform="translate(50 55)">
      <path class="cls-5" d="M 49.00001525878906 128.0526275634766 L 20.24210929870605 81.77008056640625 L 38.111083984375 81.77008056640625 L 38.89780044555664 81.77008056640625 L 38.56378173828125 81.05780029296875 L 0.7867206931114197 0.5 L 97.21327972412109 0.5 L 59.43621826171875 81.05780029296875 L 59.10219955444336 81.77008056640625 L 59.888916015625 81.77008056640625 L 77.75933837890625 81.77008056640625 L 49.00001525878906 128.0526275634766 Z"/>
      <path class="cls-7" d="M 49.00001525878906 127.1052703857422 L 76.85997009277344 82.27008056640625 L 58.31548309326172 82.27008056640625 L 96.42656707763672 1 L 1.573432564735413 1 L 39.68451690673828 82.27008056640625 L 21.14143562316895 82.27008056640625 L 49.00001525878906 127.1052703857422 M 49 129 L 19.34276580810547 81.27008056640625 L 38.111083984375 81.27008056640625 L 0 0 L 98 0 L 59.888916015625 81.27008056640625 L 78.65869903564453 81.27008056640625 L 49 129 Z"/>
    </g>
    <g id="타원_25" data-name="타원 25" class="cls-4" transform="translate(86 78)">
      <circle class="cls-5" cx="13.5" cy="13.5" r="13.5"/>
      <circle class="cls-6" cx="13.5" cy="13.5" r="13"/>
    </g>
    <circle id="타원_26" data-name="타원 26" cx="4.5" cy="4.5" r="4.5" transform="translate(95 87)"/>
  </g>
</svg>
