<svg xmlns="http://www.w3.org/2000/svg" xmlns:xlink="http://www.w3.org/1999/xlink" width="1920" height="1080" viewBox="0 0 1920 1080">
  <defs>
    <clipPath id="clip-Audio_Screen-Frame">
      <rect width="1920" height="1080"/>
    </clipPath>
  </defs>
  <g id="Audio_Screen-Frame" data-name="Audio Screen-Frame" clip-path="url(#clip-Audio_Screen-Frame)">
    <g id="타원_147" data-name="타원 147" transform="translate(933.714 106.5)" fill="none" stroke="#fff" stroke-width="4">
      <circle cx="27.5" cy="27.5" r="27.5" stroke="none"/>
      <circle cx="27.5" cy="27.5" r="25.5" fill="none"/>
    </g>
    <g id="그룹_93" data-name="그룹 93" transform="translate(1.714 -4149.936)">
      <path id="패스_58" data-name="패스 58" d="M977.882,4311.6c-.191-.229-1.658-14.681,18.407-30.2s53.728-18.76,54.3-17.156-27.192,13.51-36.553,18.979-13.567,8.2-24.295,16.828S978.073,4311.825,977.882,4311.6Z" transform="translate(21.352 -1)" fill="#fff" stroke="#fff" stroke-width="3"/>
      <path id="패스_59" data-name="패스 59" d="M990.325,4311.67c-.908-2.108,27.534-21.229,41.372-27.148s33.773-14.8,68.216-16.727,69.685.646,69.932,2.8-59.808,20.806-99.228,30.657S991.233,4313.778,990.325,4311.67Z" transform="translate(9 -0.907)" fill="#fff" stroke="#fff" stroke-width="3"/>
    </g>
    <g id="그룹_94" data-name="그룹 94" transform="translate(-257.271 -4149.936)">
      <path id="패스_58-2" data-name="패스 58" d="M1050.507,4311.6c.191-.229,1.658-14.681-18.407-30.2s-53.728-18.76-54.305-17.156,27.192,13.51,36.553,18.979,13.567,8.2,24.295,16.828S1050.316,4311.825,1050.507,4311.6Z" transform="translate(128.243 -1)" fill="#fff" stroke="#fff" stroke-width="3"/>
      <path id="패스_59-2" data-name="패스 59" d="M1169.825,4311.67c.908-2.108-27.534-21.229-41.372-27.148s-33.773-14.8-68.216-16.727-69.685.646-69.932,2.8,59.808,20.806,99.228,30.657S1168.917,4313.778,1169.825,4311.67Z" transform="translate(8.834 -0.907)" fill="#fff" stroke="#fff" stroke-width="3"/>
    </g>
    <g id="그룹_95" data-name="그룹 95" transform="translate(21.714 47.5)">
      <g id="빼기_1" data-name="빼기 1" transform="translate(872 893)" fill="none">
        <path d="M38,44h0L0,22,38,0V12.692L21.923,22,38,31.308V44Z" stroke="none"/>
        <path d="M 34 37.06227111816406 L 34 33.61384963989258 L 13.93927001953125 22 L 34 10.38615036010742 L 34 6.937797069549561 L 7.98344898223877 22.00000953674316 L 34 37.06227111816406 M 38 44 L 37.99988174438477 44 L 0 22 L 38 -3.552713678800501e-15 L 38 12.69237995147705 L 21.92284965515137 22 L 38 31.30761909484863 L 38 44 Z" stroke="none" fill="#f0efdd"/>
      </g>
      <circle id="타원_67" data-name="타원 67" cx="3.5" cy="3.5" r="3.5" transform="translate(907 911)" fill="#f0efdd"/>
    </g>
    <circle id="타원_148" data-name="타원 148" cx="575.5" cy="575.5" r="575.5" transform="translate(385.714 -35.5)" fill="none" stroke="#f0efdd" stroke-width="7"/>
    <path id="패스_211" data-name="패스 211" d="M-44.626,254.093S-71.865,236.6-60.079,207.381s47.012-11.34,57.07-38.424-45.547-49.612-34.042-81.9S29.1,67.344,43.3,28.332,9.325-40.5,26.461-73.524s51.082-14.3,74.643-46.121,29.255-68.726,29.255-68.726" transform="translate(1533.061 468.741) rotate(150)" fill="none" stroke="#f0efdd" stroke-linecap="round" stroke-width="6"/>
    <path id="패스_212" data-name="패스 212" d="M-38.718,275.372s-37.359-15.916-25.572-45.134,59.652-37.849,65.713-65.713-49.979-45.18-38.475-77.468S32.214,60.312,43.3,28.332s-47.038-68.52-29.9-101.546S83.54-83.454,108.908-113.1s5.807-61.434,5.807-61.434" transform="translate(429.009 764.876) rotate(-45)" fill="none" stroke="#f0efdd" stroke-linecap="round" stroke-width="6"/>
    <g id="타원_149" data-name="타원 149" transform="translate(402.714 -18.5)" fill="none" stroke="#f0efdd" stroke-width="2">
      <circle cx="558" cy="558" r="558" stroke="none"/>
      <circle cx="558" cy="558" r="557" fill="none"/>
    </g>
    <path id="빼기_24" data-name="빼기 24" d="M-1897.211-3391.789h0c-.283-6.069-.7-17.456-.307-25.522a37.837,37.837,0,0,1,1.241-8.686l.056-.222a89.605,89.605,0,0,1,6.941-19.544c3.364-7.049,6.211-11.826,6.239-11.874l-9,11.874-2.445-19.309v23.691l-6.237,15.938,0-.02-.01-.062c-.5-3.263-2.971-19.958-2.971-28.156,0-8.836,1.091-23.057,1.1-23.194a120.018,120.018,0,0,0-3.845,20.1c-.917,10-.038,24.485,0,25.1v.007a74.6,74.6,0,0,0-5.311-11.171c-3.63-6.432-12.8-16.671-13.231-17.152l.005.007.009.013c.706,1.017,4.422,6.445,8.244,13.39a114.791,114.791,0,0,1,6.048,12.593,49.862,49.862,0,0,1,3.508,12.789c1.146,10.673.294,22.927-.317,29.281L-1996-3480h187.429Zm32.405-64.653a5.006,5.006,0,0,0-5,5,5.006,5.006,0,0,0,5,5,5.006,5.006,0,0,0,5-5A5.005,5.005,0,0,0-1864.805-3456.441Zm-72,0a5.006,5.006,0,0,0-5,5,5.006,5.006,0,0,0,5,5,5.006,5.006,0,0,0,5-5A5.005,5.005,0,0,0-1936.805-3456.441Zm-37.3-14.982h0l23.366,23.414,8.549-14.841-31.915-8.573Zm144.758-.257h0l-31.764,8.829,8.254,14.327,23.51-23.156Z" transform="translate(-3704.429 -1014.472) rotate(135)" fill="#f0efdd"/>
    <path id="빼기_27" data-name="빼기 27" d="M-1897.211-3391.789h0c-.283-6.069-.7-17.456-.307-25.522a37.837,37.837,0,0,1,1.241-8.686l.056-.222a89.605,89.605,0,0,1,6.941-19.544c3.364-7.049,6.211-11.826,6.239-11.874l-9,11.874-2.445-19.309v23.691l-6.237,15.938,0-.02-.01-.062c-.5-3.263-2.971-19.958-2.971-28.156,0-8.836,1.091-23.057,1.1-23.194a120.018,120.018,0,0,0-3.845,20.1c-.917,10-.038,24.485,0,25.1v.007a74.6,74.6,0,0,0-5.311-11.171c-3.63-6.432-12.8-16.671-13.231-17.152l.005.007.009.013c.706,1.017,4.422,6.445,8.244,13.39a114.791,114.791,0,0,1,6.048,12.593,49.862,49.862,0,0,1,3.508,12.789c1.146,10.673.294,22.927-.317,29.281L-1996-3480h187.429Zm32.405-64.653a5.006,5.006,0,0,0-5,5,5.006,5.006,0,0,0,5,5,5.006,5.006,0,0,0,5-5A5.005,5.005,0,0,0-1864.805-3456.441Zm-72,0a5.006,5.006,0,0,0-5,5,5.006,5.006,0,0,0,5,5,5.006,5.006,0,0,0,5-5A5.005,5.005,0,0,0-1936.805-3456.441Zm-37.3-14.982h0l23.366,23.414,8.549-14.841-31.915-8.573Zm144.758-.257h0l-31.764,8.829,8.254,14.327,23.51-23.156Z" transform="translate(2934.191 -3705.709) rotate(-135)" fill="#f0efdd"/>
    <path id="빼기_30" data-name="빼기 30" d="M-1897.211-3391.789h0c-.283-6.069-.7-17.456-.307-25.522a37.837,37.837,0,0,1,1.241-8.686l.056-.222a89.605,89.605,0,0,1,6.941-19.544c3.364-7.049,6.211-11.826,6.239-11.874l-9,11.874-2.445-19.309v23.691l-6.237,15.938,0-.02-.01-.062c-.5-3.263-2.971-19.958-2.971-28.156,0-8.836,1.091-23.057,1.1-23.194a120.018,120.018,0,0,0-3.845,20.1c-.917,10-.038,24.485,0,25.1v.007a74.6,74.6,0,0,0-5.311-11.171c-3.63-6.432-12.8-16.671-13.231-17.152l.005.007.009.013c.706,1.017,4.422,6.445,8.244,13.39a114.791,114.791,0,0,1,6.048,12.593,49.862,49.862,0,0,1,3.508,12.789c1.146,10.673.294,22.927-.317,29.281L-1996-3480h187.429Zm32.405-64.653a5.006,5.006,0,0,0-5,5,5.006,5.006,0,0,0,5,5,5.006,5.006,0,0,0,5-5A5.005,5.005,0,0,0-1864.805-3456.441Zm-72,0a5.006,5.006,0,0,0-5,5,5.006,5.006,0,0,0,5,5,5.006,5.006,0,0,0,5-5A5.005,5.005,0,0,0-1936.805-3456.441Zm-37.3-14.982h0l23.366,23.414,8.549-14.841-31.915-8.573Zm144.758-.257h0l-31.764,8.829,8.254,14.327,23.51-23.156Z" transform="translate(5624.429 2096.471) rotate(-45)" fill="#f0efdd"/>
    <path id="빼기_33" data-name="빼기 33" d="M-1897.211-3391.789h0c-.283-6.069-.7-17.456-.307-25.522a37.837,37.837,0,0,1,1.241-8.686l.056-.222a89.605,89.605,0,0,1,6.941-19.544c3.364-7.049,6.211-11.826,6.239-11.874l-9,11.874-2.445-19.309v23.691l-6.237,15.938,0-.02-.01-.062c-.5-3.263-2.971-19.958-2.971-28.156,0-8.836,1.091-23.057,1.1-23.194a120.018,120.018,0,0,0-3.845,20.1c-.917,10-.038,24.485,0,25.1v.007a74.6,74.6,0,0,0-5.311-11.171c-3.63-6.432-12.8-16.671-13.231-17.152l.005.007.009.013c.706,1.017,4.422,6.445,8.244,13.39a114.791,114.791,0,0,1,6.048,12.593,49.862,49.862,0,0,1,3.508,12.789c1.146,10.673.294,22.927-.317,29.281L-1996-3480h187.429Zm32.405-64.653a5.006,5.006,0,0,0-5,5,5.006,5.006,0,0,0,5,5,5.006,5.006,0,0,0,5-5A5.005,5.005,0,0,0-1864.805-3456.441Zm-72,0a5.006,5.006,0,0,0-5,5,5.006,5.006,0,0,0,5,5,5.006,5.006,0,0,0,5-5A5.005,5.005,0,0,0-1936.805-3456.441Zm-37.3-14.982h0l23.366,23.414,8.549-14.841-31.915-8.573Zm144.758-.257h0l-31.764,8.829,8.254,14.327,23.51-23.156Z" transform="translate(-1014.191 4786.709) rotate(45)" fill="#f0efdd"/>
  </g>
</svg>
