<svg xmlns="http://www.w3.org/2000/svg" xmlns:xlink="http://www.w3.org/1999/xlink" width="750" height="300" viewBox="0 0 750 300">
  <defs>
    <clipPath id="clip-Dialogue_box-Frame">
      <rect width="750" height="300"/>
    </clipPath>
  </defs>
  <g id="Dialogue_box-Frame" data-name="Dialogue box-Frame" clip-path="url(#clip-Dialogue_box-Frame)">
    <path id="패스_51" data-name="패스 51" d="M0,0H727.913V217.8H0Z" transform="translate(11.044 44.166)" opacity="0.4"/>
    <path id="합치기_28" data-name="합치기 28" d="M1.1,1.169h0v0h0v0Z" transform="translate(9.941 42.344)" fill="none" stroke="#fff" stroke-width="2"/>
    <path id="합치기_29" data-name="합치기 29" d="M1.1,1.169h0v0h0v0Z" transform="translate(739.969 42.344) rotate(90)" fill="none" stroke="#fff" stroke-width="2" opacity="0.9"/>
    <path id="합치기_30" data-name="합치기 30" d="M1.1,1.169h0v0h0v0Z" transform="translate(9.941 261.966) rotate(-90)" fill="none" stroke="#fff" stroke-width="2"/>
    <path id="합치기_31" data-name="합치기 31" d="M1.1,1.169h0v0h0v0Z" transform="translate(739.969 262.219) rotate(180)" fill="none" stroke="#fff" stroke-width="2" opacity="0.9"/>
    <circle id="타원_48" data-name="타원 48" cx="4.5" cy="4.5" r="4.5" transform="translate(6.544 146.858)" fill="#fff"/>
    <path id="합치기_32" data-name="합치기 32" d="M.507.537h0v0h0v0Z" transform="translate(24.941 58.344)" fill="none" stroke="#fff" stroke-width="1"/>
    <path id="합치기_33" data-name="합치기 33" d="M.507.537h0v0h0v0Z" transform="translate(723.085 58.343) rotate(90)" fill="none" stroke="#fff" stroke-width="1"/>
    <path id="합치기_34" data-name="합치기 34" d="M.507.537h0v0h0v0Z" transform="translate(723.085 245.615) rotate(180)" fill="none" stroke="#fff" stroke-width="1"/>
    <path id="합치기_35" data-name="합치기 35" d="M.507.537h0v0h0v0Z" transform="translate(24.941 245.615) rotate(-90)" fill="none" stroke="#fff" stroke-width="1"/>
    <circle id="타원_49" data-name="타원 49" cx="4.5" cy="4.5" r="4.5" transform="translate(734.456 146.858)" fill="#fff"/>
  </g>
</svg>
