<?xml version="1.0" encoding="utf-8"?>
<!-- Generator: Adobe Illustrator 27.3.0, SVG Export Plug-In . SVG Version: 6.00 Build 0)  -->
<svg version="1.1" xmlns="http://www.w3.org/2000/svg" xmlns:xlink="http://www.w3.org/1999/xlink" x="0px" y="0px"
	 viewBox="0 0 600 400" style="enable-background:new 0 0 600 400;" xml:space="preserve">
<style type="text/css">
	.st0{fill:#FFFFFF;}
	.st1{font-family:'areminiscentsmile-Regular';}
	.st2{font-size:59.1343px;}
	.st3{font-family:'H2gprM';}
	.st4{font-size:25px;}
	.st5{fill:none;stroke:#FFFFFF;stroke-width:2;stroke-miterlimit:10;}
	.st6{fill:none;stroke:#FFFFFF;stroke-width:1.3;stroke-miterlimit:10;}
	.st7{fill:none;stroke:#FFFFFF;stroke-miterlimit:10;}
	.st8{display:none;stroke:#000000;stroke-width:0.8;stroke-miterlimit:10;}
	.st9{display:none;}
	.st10{display:inline;}
	.st11{fill:none;stroke:#000000;stroke-width:2;stroke-miterlimit:10;}
	.st12{fill:none;stroke:#000000;stroke-width:1.3;stroke-miterlimit:10;}
	.st13{fill:none;stroke:#000000;stroke-miterlimit:10;}
	.st14{display:inline;fill:none;stroke:#000000;stroke-miterlimit:10;}
</style>
<g id="레이어_1">
	<g>
		<text transform="matrix(1 0 0 1 35.8277 210.8106)" class="st0 st1 st2">Deeproot     Vinyard</text>
		<text transform="matrix(1 0 0 1 504.772 241.4093)" class="st0 st3 st4">GMU</text>
		<path id="XMLID_00000018233472581014183360000003847936812935726217_" class="st5" d="M36.06,214.06c86.67,0,173.33,0,260,0"/>
		
			<ellipse transform="matrix(0.2194 -0.9756 0.9756 0.2194 72.4071 464.9427)" class="st6" cx="326.75" cy="187.22" rx="50.77" ry="32.27"/>
		<path id="XMLID_00000127723551572876420510000008702702791857276295_" class="st5" d="M351.06,213.84c71,0,142,0,213,0"/>
		<g>
			<g>
				<path class="st0" d="M347.39,188.73c-0.53,16.92-21.33,24.76-32.68,12.35c-6.34-6.78-6.31-17.9,0.08-24.61
					C326.22,164.25,346.49,171.94,347.39,188.73L347.39,188.73z M339.94,188.73c0.97-12.74-14.58-19.99-24.1-11.22
					c-8.38,7.54-5.44,21.97,5.35,25.41C330.87,206.03,340.32,198.71,339.94,188.73L339.94,188.73z"/>
			</g>
			<circle class="st7" cx="310.9" cy="184.25" r="5.84"/>
		</g>
	</g>
</g>
<g id="레이어_2">
	<path class="st8" d="M28,163.08c176,0,352,0,528,0"/>
</g>
<g id="레이어_3" class="st9">
	<g class="st10">
		<text transform="matrix(1 0 0 1 27.7627 215.4678)" class="st1 st2">Deeproot     Vinyard</text>
		<text transform="matrix(1 0 0 1 496.707 246.0664)" class="st3 st4">GMU</text>
		<path id="XMLID_00000099631425889702478740000016430693398786455452_" class="st11" d="M28,218.72c86.67,0,173.33,0,260,0"/>
		
			<ellipse transform="matrix(0.2194 -0.9756 0.9756 0.2194 61.5678 460.7096)" class="st12" cx="318.69" cy="191.88" rx="50.77" ry="32.27"/>
		<path id="XMLID_00000086662256789770135390000004543876125013388441_" class="st11" d="M343,218.5c71,0,142,0,213,0"/>
		<g>
			<g>
				<path d="M339.33,193.39c-0.53,16.92-21.33,24.76-32.68,12.35c-6.34-6.78-6.31-17.9,0.08-24.61
					C318.16,168.91,338.42,176.6,339.33,193.39L339.33,193.39z M331.88,193.39c0.97-12.74-14.58-19.99-24.1-11.22
					c-8.38,7.54-5.44,21.97,5.35,25.41C322.81,210.68,332.25,203.37,331.88,193.39L331.88,193.39z"/>
			</g>
			<circle class="st13" cx="302.84" cy="188.9" r="5.84"/>
		</g>
	</g>
</g>
<g id="레이어_4" class="st9">
	<line class="st14" x1="300.5" y1="-0.5" x2="300.5" y2="399.5"/>
</g>
</svg>
