<svg xmlns="http://www.w3.org/2000/svg" xmlns:xlink="http://www.w3.org/1999/xlink" width="350" height="350" viewBox="0 0 350 350">
  <defs>
    <clipPath id="clip-EARTH">
      <rect width="350" height="350"/>
    </clipPath>
  </defs>
  <g id="EARTH" clip-path="url(#clip-EARTH)">
    <circle id="타원_119" data-name="타원 119" cx="155" cy="155" r="155" transform="translate(20 20)" fill="none"/>
    <path id="다각형_29" data-name="다각형 29" d="M232.5,0,310,134.5,232.5,269H77.5L0,134.5,77.5,0Z" transform="translate(20 41)" fill="#3c1d13"/>
    <path id="다각형_30" data-name="다각형 30" d="M232.5,0,310,134.5,232.5,269H77.5L0,134.5,77.5,0Z" transform="translate(108.016 -18.48) rotate(30)" fill="#3c1d13" style="mix-blend-mode: multiply;isolation: isolate"/>
    <path id="다각형_31" data-name="다각형 31" d="M232.5,0,310,134.5,232.5,269H77.5L0,134.5,77.5,0Z" transform="matrix(0.966, 0.259, -0.259, 0.966, 60.093, 5.466)" fill="#006c03" style="mix-blend-mode: screen;isolation: isolate"/>
    <g id="다각형_32" data-name="다각형 32" transform="translate(129.675 44.751) rotate(30)" fill="none" style="mix-blend-mode: screen;isolation: isolate">
      <path d="M156.566,0l52.189,90.136-52.189,90.136H52.189L0,90.136,52.189,0Z" stroke="none"/>
      <path d="M 66.60179138183594 24.99998474121094 L 28.88809204101562 90.13632965087891 L 66.60179138183594 155.2726745605469 L 142.1524810791016 155.2726745605469 L 179.8661804199219 90.13632965087891 L 142.1524810791016 24.99998474121094 L 66.60179138183594 24.99998474121094 M 52.18858337402344 -1.52587890625e-05 L 156.5656890869141 -1.52587890625e-05 L 208.7542877197266 90.13632965087891 L 156.5656890869141 180.2726745605469 L 52.18858337402344 180.2726745605469 L -1.52587890625e-05 90.13632965087891 L 52.18858337402344 -1.52587890625e-05 Z" stroke="none" fill="#613700"/>
    </g>
    <g id="타원_120" data-name="타원 120" transform="translate(110 110)" fill="#1bcf00" stroke="#a4ff9e" stroke-width="5">
      <circle cx="65" cy="65" r="65" stroke="none"/>
      <circle cx="65" cy="65" r="62.5" fill="none"/>
    </g>
  </g>
</svg>
