<svg xmlns="http://www.w3.org/2000/svg" xmlns:xlink="http://www.w3.org/1999/xlink" width="700" height="300" viewBox="0 0 700 300">
  <defs>
    <radialGradient id="radial-gradient" cx="0.5" cy="0.5" r="0.5" gradientUnits="objectBoundingBox">
      <stop offset="0" stop-color="#fff"/>
      <stop offset="1" stop-color="#ebe3c9"/>
    </radialGradient>
    <linearGradient id="linear-gradient" x1="0.5" x2="0.5" y2="3.373" gradientUnits="objectBoundingBox">
      <stop offset="0" stop-color="#e40000"/>
      <stop offset="1" stop-color="#720000"/>
    </linearGradient>
    <clipPath id="clip-HUD_SUN">
      <rect width="700" height="300"/>
    </clipPath>
  </defs>
  <g id="HUD_SUN" data-name="HUD – SUN" clip-path="url(#clip-HUD_SUN)">
    <g id="레이어_3" data-name="레이어 3" transform="translate(20.82 72.608)">
      <path id="패스_3" data-name="패스 3" d="M155.2,180c.232-4.842.288-10.34,0-16.363-.238-4.982-.673-9.546-1.2-13.636h3.6c.492,3.765.953,8.355,1.2,13.636.3,6.35.208,11.92,0,16.363Z" transform="translate(39.373 -66.609)" fill="#f0efdd"/>
      <path id="패스_4" data-name="패스 4" d="M213.647,183c.23-4.842.287-10.34,0-16.363-.238-4.982-.675-9.546-1.2-13.636h3.6c.492,3.765.953,8.355,1.2,13.636.3,6.35.21,11.92,0,16.363Z" transform="translate(78.334 -64.609)" fill="#f0efdd"/>
      <path id="패스_5" data-name="패스 5" d="M279.158,191c.23-4.842.287-10.34,0-16.363-.238-4.982-.675-9.546-1.2-13.636h3.607c.492,3.765.952,8.355,1.2,13.636.3,6.35.21,11.92,0,16.363Z" transform="translate(122.004 -59.276)" fill="#f0efdd"/>
      <path id="패스_6" data-name="패스 6" d="M337.817,187c.232-4.842.288-10.34,0-16.363-.238-4.982-.673-9.546-1.2-13.636h3.605c.492,3.765.953,8.355,1.2,13.636.3,6.35.208,11.92,0,16.363Z" transform="translate(161.109 -61.943)" fill="#f0efdd"/>
      <path id="패스_7" data-name="패스 7" d="M394.817,176c.232-4.842.288-10.34,0-16.363-.238-4.982-.673-9.546-1.2-13.636h3.6c.492,3.765.953,8.355,1.2,13.636.3,6.35.208,11.92,0,16.363Z" transform="translate(199.106 -69.275)" fill="#f0efdd"/>
      <path id="패스_8" data-name="패스 8" d="M71.35,141.69c2.965,9.778,2.587,12.531,5,20a88.217,88.217,0,0,0,6.666,15c8.435,14.518,29.3,26.913,50,26.666,8.953-.107,19.856-3.96,41.666-11.666,5.652-2,10.26-3.78,13.333-5a140.883,140.883,0,0,1,21.666-6.666,152.352,152.352,0,0,1,28.333-3.333,348.513,348.513,0,0,1,48.332,1.667c9.708.918,16.036,1.765,50,6.666,27.368,3.95,49.185,7.03,60,8.333,13.016,1.568,20.638,1.889,31.646,2.744a351.41,351.41,0,0,0,42.331,1.315c22.086-.521,25.968-.907,46.011-3.4,17.106-2.035,33.866-4.273,66.674-10.661,26.534-5.167,24.163-5.227,33.333-6.666,44.216-6.941,80.008-2.492,80-1.667-.008.792-32.951-2.633-80,5-19.109,3.1-18.224,5.646-48.083,11.2-20.306,3.778-41.493,8.095-68.812,10.463-34.586,3-60.77.325-68.1,0-15.558-.69-31.694-2.692-63.332-6.666-45.419-5.707-50.08-7.38-78.331-10-3.018-.28-45.71-4.07-73.331,1.667a156.126,156.126,0,0,0-26.666,8.333,137.094,137.094,0,0,0-13.333,6.666c-6.3,3.473-42.926,23.656-75,10a62,62,0,0,1-25-20,87.208,87.208,0,0,1-13.333-33.332c-.09-.507-.533-3.107-1.233-6.7-.382-1.958-1.112-5.618-2.1-9.97-1.5-6.6-2.96-12.02-3.333-13.333-4.438-15.593-19.3-27.328-18.333-28.333.73-.76,9.313,5.825,16.666,13.333,4.2,4.288,8.188,8.421,11.666,15C68.594,132.6,69.6,135.918,71.35,141.69Z" transform="translate(-37.973 -99.964)" fill="#f0efdd"/>
    </g>
    <ellipse id="타원_131" data-name="타원 131" cx="66.5" cy="66" rx="66.5" ry="66" transform="translate(47.846 50.003)" fill="url(#radial-gradient)"/>
    <g id="그룹_27" data-name="그룹 27" transform="translate(49.975 76.746)">
      <circle id="타원_119" data-name="타원 119" cx="65.8" cy="65.8" r="65.8" transform="translate(-1.896 -26.008)" fill="none"/>
      <path id="다각형_28" data-name="다각형 28" d="M56.848,0,113.7,98.477H0Z" transform="translate(7.056 -26.008)" fill="#ffe434"/>
      <g id="그룹_26" data-name="그룹 26" transform="translate(55.808 -60.261) rotate(30)">
        <path id="다각형_34" data-name="다각형 34" d="M56.739,0l56.739,98.5H0Z" transform="translate(0.249 16.761)" fill="#ff4c00"/>
        <path id="패스_145" data-name="패스 145" d="M56.74,0l57.237,98.215L0,97.927Z" transform="translate(85.057 0) rotate(60)" fill="#ff4c00"/>
      </g>
      <path id="다각형_60" data-name="다각형 60" d="M56.848,0,113.7,98.477H0Z" transform="translate(7.056 -26.008)" fill="#ffbc00" style="mix-blend-mode: overlay;isolation: isolate"/>
      <path id="다각형_33" data-name="다각형 33" d="M57.065,0,114.13,98.432H0Z" transform="translate(92.22 -42.738) rotate(60)" fill="#ffe434"/>
      <g id="타원_125" data-name="타원 125" transform="translate(36.599 11.592)" fill="#fc0" stroke="#fff797" stroke-width="2">
        <ellipse cx="27.305" cy="27.753" rx="27.305" ry="27.753" stroke="none"/>
        <ellipse cx="27.305" cy="27.753" rx="26.305" ry="26.753" fill="none"/>
      </g>
      <path id="합치기_38" data-name="합치기 38" d="M0,6.788H4.667L2.334,13.577Zm0,0L2.334,0,4.667,6.788Z" transform="translate(17.864 -3.906) rotate(-45)" fill="red"/>
      <path id="합치기_39" data-name="합치기 39" d="M0,6.788H4.667L2.334,13.577Zm0,0L2.334,0,4.667,6.788Z" transform="matrix(0.966, -0.259, 0.259, 0.966, 45.76, -21.593)" fill="red"/>
      <path id="합치기_40" data-name="합치기 40" d="M0,6.788H4.667L2.334,13.577Zm0,0L2.334,0,4.667,6.788Z" transform="matrix(0.966, 0.259, -0.259, 0.966, 78.549, -22.801)" fill="red"/>
      <path id="합치기_41" data-name="합치기 41" d="M0,6.788H4.667L2.334,13.577Zm0,0L2.334,0,4.667,6.788Z" transform="translate(107.653 -7.63) rotate(45)" fill="red"/>
      <path id="합치기_42" data-name="합치기 42" d="M0,6.788H4.667L2.334,13.577Zm0,0L2.334,0,4.667,6.788Z" transform="matrix(0.259, 0.966, -0.966, 0.259, 124.801, 20.806)" fill="red"/>
      <path id="합치기_43" data-name="합치기 43" d="M0,6.788H4.667L2.334,13.577Zm0,0L2.334,0,4.667,6.788Z" transform="matrix(0.259, -0.966, 0.966, 0.259, 2.693, 25.314)" fill="red"/>
      <path id="합치기_44" data-name="합치기 44" d="M0,6.788H4.667L2.334,13.577Zm0,0L2.334,0,4.667,6.788Z" transform="matrix(-0.259, 0.966, -0.966, -0.259, 126.009, 52.746)" fill="red"/>
      <path id="합치기_45" data-name="합치기 45" d="M0,6.788H4.667L2.334,13.577Zm0,0L2.334,0,4.667,6.788Z" transform="matrix(-0.966, 0.259, -0.259, -0.966, 82.141, 99.144)" fill="red"/>
      <path id="합치기_46" data-name="합치기 46" d="M0,6.788H4.667L2.334,13.577Zm0,0L2.334,0,4.667,6.788Z" transform="translate(110.104 81.825) rotate(135)" fill="red"/>
      <path id="합치기_47" data-name="합치기 47" d="M0,6.788H4.667L2.334,13.577Zm0,0L2.334,0,4.667,6.788Z" transform="matrix(-0.259, -0.966, 0.966, -0.259, 3.9, 58.103)" fill="red"/>
      <path id="합치기_48" data-name="합치기 48" d="M0,6.788H4.667L2.334,13.577Zm0,0L2.334,0,4.667,6.788Z" transform="translate(21.553 85.125) rotate(-135)" fill="red"/>
      <path id="합치기_49" data-name="합치기 49" d="M0,6.788H4.667L2.334,13.577Zm0,0L2.334,0,4.667,6.788Z" transform="matrix(-0.966, -0.259, 0.259, -0.966, 50.233, 99.927)" fill="red"/>
    </g>
    <path id="패스_146" data-name="패스 146" d="M102.143,87.4c.18-.788,20.41-1.691,34.19,11.4,2.972,2.825,6.431,6.187,8.333,11.666,1.745,5.028,1.717,10.5,1.667,20-.007,1.353-.032,1.962,0,3.333A51.4,51.4,0,0,0,148,147.14c1.558,5.352,3.83,7.978,3.333,8.333-.583.418-4.162-2.91-6.666-6.666-4.812-7.211-4.92-15.51-5-18.333,0-.068,0-.058,0-3.28,0-4.532.165-6.795,0-8.386A25.481,25.481,0,0,0,138,112.141c-2.41-6.443-7.273-10.582-10.135-12.962C115.561,89.531,101.991,88.066,102.143,87.4Z" transform="translate(26.194 -36.14)" fill="#f0efdd"/>
    <g id="레이어_4" data-name="레이어 4" transform="translate(185.02 161.155)" style="isolation: isolate">
      <g id="그룹_35" data-name="그룹 35" transform="translate(0 11.68)">
        <path id="패스_155" data-name="패스 155" d="M168.552,218.264c-17.145-11.628-26.136-22.206-29.823-31.059-9.878-23.728,15.36-39.352,29.823-14.3,14.518-25.144,39.7-9.425,29.824,14.3C194.686,196.058,185.7,206.636,168.552,218.264Z" transform="translate(-136.496 -160.101)" fill="url(#linear-gradient)"/>
        <ellipse id="타원_136" data-name="타원 136" cx="2.055" cy="3.045" rx="2.055" ry="3.045" transform="translate(50.315 5.279) rotate(-43)" fill="#fff" opacity="0.82" style="isolation: isolate"/>
        <path id="패스_156" data-name="패스 156" d="M171.817,167.108a14.634,14.634,0,0,1-.448,13.868" transform="translate(-114.249 -155.43)" fill="none" stroke="#fff" stroke-linecap="round" stroke-width="2" opacity="0.82" style="isolation: isolate"/>
      </g>
      <g id="그룹_35-2" data-name="그룹 35" transform="translate(98 15.68)">
        <path id="패스_155-2" data-name="패스 155" d="M168.552,218.264c-17.145-11.628-26.136-22.206-29.823-31.059-9.878-23.728,15.36-39.352,29.823-14.3,14.518-25.144,39.7-9.425,29.824,14.3C194.686,196.058,185.7,206.636,168.552,218.264Z" transform="translate(-136.496 -160.101)" fill="url(#linear-gradient)"/>
        <ellipse id="타원_136-2" data-name="타원 136" cx="2.055" cy="3.045" rx="2.055" ry="3.045" transform="translate(50.315 5.279) rotate(-43)" fill="#fff" opacity="0.82" style="isolation: isolate"/>
        <path id="패스_156-2" data-name="패스 156" d="M171.817,167.108a14.634,14.634,0,0,1-.448,13.868" transform="translate(-114.249 -155.43)" fill="none" stroke="#fff" stroke-linecap="round" stroke-width="2" opacity="0.82" style="isolation: isolate"/>
      </g>
      <g id="그룹_35-3" data-name="그룹 35" transform="translate(207 30.68)">
        <path id="패스_155-3" data-name="패스 155" d="M168.552,218.264c-17.145-11.628-26.136-22.206-29.823-31.059-9.878-23.728,15.36-39.352,29.823-14.3,14.518-25.144,39.7-9.425,29.824,14.3C194.686,196.058,185.7,206.636,168.552,218.264Z" transform="translate(-136.496 -160.101)" fill="url(#linear-gradient)"/>
        <ellipse id="타원_136-3" data-name="타원 136" cx="2.055" cy="3.045" rx="2.055" ry="3.045" transform="translate(50.315 5.279) rotate(-43)" fill="#fff" opacity="0.82" style="isolation: isolate"/>
        <path id="패스_156-3" data-name="패스 156" d="M171.817,167.108a14.634,14.634,0,0,1-.448,13.868" transform="translate(-114.249 -155.43)" fill="none" stroke="#fff" stroke-linecap="round" stroke-width="2" opacity="0.82" style="isolation: isolate"/>
      </g>
      <g id="그룹_35-4" data-name="그룹 35" transform="translate(305 21.68)">
        <path id="패스_155-4" data-name="패스 155" d="M168.552,218.264c-17.145-11.628-26.136-22.206-29.823-31.059-9.878-23.728,15.36-39.352,29.823-14.3,14.518-25.144,39.7-9.425,29.824,14.3C194.686,196.058,185.7,206.636,168.552,218.264Z" transform="translate(-136.496 -160.101)" fill="url(#linear-gradient)"/>
        <ellipse id="타원_136-4" data-name="타원 136" cx="2.055" cy="3.045" rx="2.055" ry="3.045" transform="translate(50.315 5.279) rotate(-43)" fill="#fff" opacity="0.82" style="isolation: isolate"/>
        <path id="패스_156-4" data-name="패스 156" d="M171.817,167.108a14.634,14.634,0,0,1-.448,13.868" transform="translate(-114.249 -155.43)" fill="none" stroke="#fff" stroke-linecap="round" stroke-width="2" opacity="0.82" style="isolation: isolate"/>
      </g>
      <g id="그룹_35-5" data-name="그룹 35" transform="translate(400 1.598)">
        <path id="패스_155-5" data-name="패스 155" d="M168.552,218.264c-17.145-11.628-26.136-22.206-29.823-31.059-9.878-23.728,15.36-39.352,29.823-14.3,14.518-25.144,39.7-9.425,29.824,14.3C194.686,196.058,185.7,206.636,168.552,218.264Z" transform="translate(-136.496 -160.101)" fill="url(#linear-gradient)"/>
        <ellipse id="타원_136-5" data-name="타원 136" cx="2.055" cy="3.045" rx="2.055" ry="3.045" transform="translate(50.315 5.279) rotate(-43)" fill="#fff" opacity="0.82" style="isolation: isolate"/>
        <path id="패스_156-5" data-name="패스 156" d="M171.817,167.108a14.634,14.634,0,0,1-.448,13.868" transform="translate(-114.249 -155.43)" fill="none" stroke="#fff" stroke-linecap="round" stroke-width="2" opacity="0.82" style="isolation: isolate"/>
      </g>
    </g>
  </g>
</svg>
