<svg xmlns="http://www.w3.org/2000/svg" xmlns:xlink="http://www.w3.org/1999/xlink" width="700" height="300" viewBox="0 0 700 300">
  <defs>
    <radialGradient id="radial-gradient" cx="0.5" cy="0.5" r="0.5" gradientUnits="objectBoundingBox">
      <stop offset="0" stop-color="#fff"/>
      <stop offset="1" stop-color="#9eb89a"/>
    </radialGradient>
    <clipPath id="clip-HUD_EARTH_1">
      <rect width="700" height="300"/>
    </clipPath>
  </defs>
  <g id="HUD_EARTH_1" data-name="HUD – EARTH – 1" clip-path="url(#clip-HUD_EARTH_1)">
    <g id="레이어_3" data-name="레이어 3" transform="translate(20.82 72.608)">
      <path id="패스_3" data-name="패스 3" d="M155.2,180c.232-4.842.288-10.34,0-16.363-.238-4.982-.673-9.546-1.2-13.636h3.6c.492,3.765.953,8.355,1.2,13.636.3,6.35.208,11.92,0,16.363Z" transform="translate(39.373 -66.609)" fill="#f0efdd"/>
      <path id="패스_4" data-name="패스 4" d="M213.647,183c.23-4.842.287-10.34,0-16.363-.238-4.982-.675-9.546-1.2-13.636h3.6c.492,3.765.953,8.355,1.2,13.636.3,6.35.21,11.92,0,16.363Z" transform="translate(78.334 -64.609)" fill="#f0efdd"/>
      <path id="패스_5" data-name="패스 5" d="M279.158,191c.23-4.842.287-10.34,0-16.363-.238-4.982-.675-9.546-1.2-13.636h3.607c.492,3.765.952,8.355,1.2,13.636.3,6.35.21,11.92,0,16.363Z" transform="translate(122.004 -59.276)" fill="#f0efdd"/>
      <path id="패스_6" data-name="패스 6" d="M337.817,187c.232-4.842.288-10.34,0-16.363-.238-4.982-.673-9.546-1.2-13.636h3.605c.492,3.765.953,8.355,1.2,13.636.3,6.35.208,11.92,0,16.363Z" transform="translate(161.109 -61.943)" fill="#f0efdd"/>
      <path id="패스_7" data-name="패스 7" d="M394.817,176c.232-4.842.288-10.34,0-16.363-.238-4.982-.673-9.546-1.2-13.636h3.6c.492,3.765.953,8.355,1.2,13.636.3,6.35.208,11.92,0,16.363Z" transform="translate(199.106 -69.275)" fill="#f0efdd"/>
      <path id="패스_8" data-name="패스 8" d="M71.35,141.69c2.965,9.778,2.587,12.531,5,20a88.217,88.217,0,0,0,6.666,15c8.435,14.518,29.3,26.913,50,26.666,8.953-.107,19.856-3.96,41.666-11.666,5.652-2,10.26-3.78,13.333-5a140.883,140.883,0,0,1,21.666-6.666,152.352,152.352,0,0,1,28.333-3.333,348.513,348.513,0,0,1,48.332,1.667c9.708.918,16.036,1.765,50,6.666,27.368,3.95,49.185,7.03,60,8.333,13.016,1.568,20.638,1.889,31.646,2.744a351.41,351.41,0,0,0,42.331,1.315c22.086-.521,25.968-.907,46.011-3.4,17.106-2.035,33.866-4.273,66.674-10.661,26.534-5.167,24.163-5.227,33.333-6.666,44.216-6.941,80.008-2.492,80-1.667-.008.792-32.951-2.633-80,5-19.109,3.1-18.224,5.646-48.083,11.2-20.306,3.778-41.493,8.095-68.812,10.463-34.586,3-60.77.325-68.1,0-15.558-.69-31.694-2.692-63.332-6.666-45.419-5.707-50.08-7.38-78.331-10-3.018-.28-45.71-4.07-73.331,1.667a156.126,156.126,0,0,0-26.666,8.333,137.094,137.094,0,0,0-13.333,6.666c-6.3,3.473-42.926,23.656-75,10a62,62,0,0,1-25-20,87.208,87.208,0,0,1-13.333-33.332c-.09-.507-.533-3.107-1.233-6.7-.382-1.958-1.112-5.618-2.1-9.97-1.5-6.6-2.96-12.02-3.333-13.333-4.438-15.593-19.3-27.328-18.333-28.333.73-.76,9.313,5.825,16.666,13.333,4.2,4.288,8.188,8.421,11.666,15C68.594,132.6,69.6,135.918,71.35,141.69Z" transform="translate(-37.973 -99.964)" fill="#f0efdd"/>
    </g>
    <ellipse id="타원_132" data-name="타원 132" cx="66.5" cy="66" rx="66.5" ry="66" transform="translate(47.846 50.003)" fill="url(#radial-gradient)"/>
    <g id="그룹_28" data-name="그룹 28" transform="translate(55.801 52.62)">
      <circle id="타원_119" data-name="타원 119" cx="65.352" cy="65.352" r="65.352" transform="translate(-6.743 -1.782)" fill="none"/>
      <path id="다각형_29" data-name="다각형 29" d="M98.028,0,130.7,56.233,98.028,112.466H32.676L0,56.233,32.676,0Z" transform="translate(-6.743 7.337)" fill="#3c1d13"/>
      <path id="다각형_30" data-name="다각형 30" d="M98.119,0l32.706,56.761L98.119,113.522H32.706L0,56.761,32.706,0Z" transform="translate(30.277 -18.48) rotate(30)" fill="#3c1d13" style="mix-blend-mode: multiply;isolation: isolate"/>
      <path id="다각형_31" data-name="다각형 31" d="M98.119,0l32.706,56.761L98.119,113.522H32.706L0,56.761,32.706,0Z" transform="matrix(0.966, 0.259, -0.259, 0.966, 10.053, -8.375)" fill="#006c03" style="mix-blend-mode: screen;isolation: isolate"/>
      <g id="다각형_32" data-name="다각형 32" transform="translate(39.988 8.603) rotate(30)" fill="none" style="mix-blend-mode: screen;isolation: isolate">
        <path d="M66.073,0,88.1,38.039,66.073,76.078H22.024L0,38.039,22.024,0Z" stroke="none"/>
        <path d="M 27.7896614074707 10.00000762939453 L 11.55524444580078 38.03892135620117 L 27.7896614074707 66.07783508300781 L 60.3078498840332 66.07783508300781 L 76.54226684570312 38.03892135620117 L 60.3078498840332 10.00000762939453 L 27.7896614074707 10.00000762939453 M 22.02438354492188 7.62939453125e-06 L 66.07313537597656 7.62939453125e-06 L 88.09750366210938 38.03892135620117 L 66.07313537597656 76.07783508300781 L 22.02438354492188 76.07783508300781 L 7.62939453125e-06 38.03892135620117 L 22.02438354492188 7.62939453125e-06 Z" stroke="none" fill="#613700"/>
      </g>
      <g id="타원_120" data-name="타원 120" transform="translate(31.759 35.707)" fill="#1bcf00" stroke="#a4ff9e" stroke-width="2">
        <ellipse cx="27.357" cy="27.863" rx="27.357" ry="27.863" stroke="none"/>
        <ellipse cx="27.357" cy="27.863" rx="26.357" ry="26.863" fill="none"/>
      </g>
    </g>
    <path id="패스_147" data-name="패스 147" d="M102.143,87.4c.18-.788,20.41-1.691,34.19,11.4,2.972,2.825,6.431,6.187,8.333,11.666,1.745,5.028,1.717,10.5,1.667,20-.007,1.353-.032,1.962,0,3.333A51.4,51.4,0,0,0,148,147.14c1.558,5.352,3.83,7.978,3.333,8.333-.583.418-4.162-2.91-6.666-6.666-4.812-7.211-4.92-15.51-5-18.333,0-.068,0-.058,0-3.28,0-4.532.165-6.795,0-8.386A25.481,25.481,0,0,0,138,112.141c-2.41-6.443-7.273-10.582-10.135-12.962C115.561,89.531,101.991,88.066,102.143,87.4Z" transform="translate(26.194 -36.14)" fill="#f0efdd"/>
  </g>
</svg>
