<svg xmlns="http://www.w3.org/2000/svg" xmlns:xlink="http://www.w3.org/1999/xlink" width="150" height="150" viewBox="0 0 150 150">
  <defs>
    <style>
      .cls-1 {
        clip-path: url(#clip-Interact_Icon_);
      }

      .cls-2 {
        fill: #fff;
      }

      .cls-3 {
        fill: #dd2c00;
        font-size: 60px;
        font-family: GillSansMT-Bold, Gill Sans MT;
        font-weight: 700;
      }
    </style>
    <clipPath id="clip-Interact_Icon_">
      <rect width="150" height="150"/>
    </clipPath>
  </defs>
  <g id="Interact_Icon_" data-name="Interact(Icon)" class="cls-1">
    <path id="합치기_27" data-name="합치기 27" class="cls-2" d="M-1949.332,93.157l-8.4-19.18H-1985a5,5,0,0,1-5-5V5a5,5,0,0,1,5-5h75a5,5,0,0,1,5,5V68.977a5,5,0,0,1-5,5h-27.265l-8.4,19.18a1.972,1.972,0,0,1-1.831,1.2A1.972,1.972,0,0,1-1949.332,93.157Z" transform="translate(2022.5 27.823)"/>
    <text id="_" data-name="!" class="cls-3" transform="translate(67 86.823)"><tspan x="0" y="0">!</tspan></text>
  </g>
</svg>
