<svg xmlns="http://www.w3.org/2000/svg" xmlns:xlink="http://www.w3.org/1999/xlink" width="895" height="250" viewBox="0 0 895 250">
  <defs>
    <style>
      .cls-1 {
        clip-path: url(#clip-LOGO_-_2);
      }

      .cls-2, .cls-5 {
        fill: none;
      }

      .cls-2 {
        stroke: #fff;
        stroke-linecap: round;
        stroke-width: 3px;
      }

      .cls-3 {
        fill: #fff;
      }

      .cls-4 {
        fill: url(#linear-gradient);
      }

      .cls-5 {
        stroke: #8c8c8c;
        stroke-width: 0.4px;
      }

      .cls-6 {
        fill: rgba(255,255,255,0);
      }

      .cls-7 {
        filter: url(#교차_4);
      }

      .cls-8 {
        filter: url(#패스_24);
      }
    </style>
    <filter id="패스_24" x="11.688" y="138.092" width="871.622" height="79.676" filterUnits="userSpaceOnUse">
      <feOffset dy="5" input="SourceAlpha"/>
      <feGaussianBlur stdDeviation="3" result="blur"/>
      <feFlood flood-opacity="0.161"/>
      <feComposite operator="in" in2="blur"/>
      <feComposite in="SourceGraphic"/>
    </filter>
    <linearGradient id="linear-gradient" x1="0.5" x2="0.5" y2="1" gradientUnits="objectBoundingBox">
      <stop offset="0" stop-color="#fff"/>
      <stop offset="0.649" stop-color="#e8ffe6"/>
      <stop offset="0.9" stop-color="#6aec80"/>
      <stop offset="1" stop-color="#2fc734"/>
    </linearGradient>
    <filter id="교차_4" x="29.611" y="47.732" width="833.404" height="131.748" filterUnits="userSpaceOnUse">
      <feOffset dy="3" input="SourceAlpha"/>
      <feGaussianBlur stdDeviation="3" result="blur-2"/>
      <feFlood flood-opacity="0.161" result="color"/>
      <feComposite operator="out" in="SourceGraphic" in2="blur-2"/>
      <feComposite operator="in" in="color"/>
      <feComposite operator="in" in2="SourceGraphic"/>
    </filter>
    <clipPath id="clip-LOGO_-_2">
      <rect width="895" height="250"/>
    </clipPath>
  </defs>
  <g id="LOGO_-_2" data-name="LOGO - 2" class="cls-1">
    <rect class="cls-6" width="895" height="250"/>
    <g class="cls-8" transform="matrix(1, 0, 0, 1, 0, 0)">
      <path id="패스_24-2" data-name="패스 24" class="cls-2" d="M616.138,333.83c-30.77,1.455-43.765,9.875-42.517,19.959s12.7,17.825,57.65,17.825,55.093.121,131.093-8.222,112.265-17.376,173.055-31.85,54.527-20.369,56.822-18.293-14.757,12.724-26.815,25.406-13.145,18.042-9.74,21.385,21.11-.64,35.664-3.838,60.388-16.165,104.633-24.659,74.908-11.531,113.475-13.895,77.888-4.114,106.026-2.431,57.446,4.325,76.095,8.108,36.775,8.433,31.706,23.656-72.215,23.879-85.329,24.359" transform="translate(-551.34 -169.35)"/>
    </g>
    <path id="패스_23" data-name="패스 23" class="cls-3" d="M583.813,310.353s-4.958-20.617,3.1-29.363,23.76-13.184,23.76-13.184,6.179-2.793,7.081-7.3,2.071,13.58-2.071,24.167-7.826,18.873-19.564,22.786-10.506,3.452-10.506,3.452l-3.1,7.314-1.736-.992Z" transform="matrix(1, -0.017, 0.017, 1, -506.309, -164.895)"/>
    <circle id="타원_18" data-name="타원 18" class="cls-3" cx="7" cy="7" r="7" transform="translate(373.304 68.593)"/>
    <g data-type="innerShadowGroup">
      <path id="교차_4-2" data-name="교차 4" class="cls-4" d="M46.626,142.11A60.985,60.985,0,0,1,26.1,129.235,58.49,58.49,0,0,1,11.821,108.4,70.338,70.338,0,0,1,7.031,81.861,68.386,68.386,0,0,1,12.173,55.23,62.651,62.651,0,0,1,27.334,33.521,65.458,65.458,0,0,1,50.009,19.547,80.962,80.962,0,0,1,78.134,14.8q29.8,0,47.725,16.875T143.789,76.5a69.846,69.846,0,0,1-4.878,26.06A66.13,66.13,0,0,1,124.717,124.4a70.76,70.76,0,0,1-23.906,16.611,75.059,75.059,0,0,1-29.18,5.537A69.611,69.611,0,0,1,46.626,142.11Zm-7.34-99.184Q25.4,57.076,25.4,80.631q0,22.764,13.447,37.046t34.98,14.282q22.851,0,37.222-15.117T125.42,77.73q0-22.236-13.359-35.6T76.289,28.776Q53.173,28.776,39.287,42.926Zm394.026,99.712a8.6,8.6,0,0,1-3.823-7.6,14.591,14.591,0,0,1,.923-4.878,27.346,27.346,0,0,1,2.857-5.581,33.159,33.159,0,0,0,7.69,2.988,34.518,34.518,0,0,0,8.306.967q10.458,0,16.479-4.7a15.359,15.359,0,0,0,6.021-12.788q0-9.669-15.733-22.412l-.088-.088q-.263-.175-.79-.616-22.764-18.193-22.764-32.168A30.521,30.521,0,0,1,435.2,43.1a38.453,38.453,0,0,1,8-11.426A57.624,57.624,0,0,1,459.988,20.03a44.873,44.873,0,0,1,18.456-4q6.857,0,10.283,2.286a7.688,7.688,0,0,1,3.428,6.855,11.066,11.066,0,0,1-1.143,4.174,49.759,49.759,0,0,1-3.34,6.109,40.007,40.007,0,0,0-6.987-2.154,35.237,35.237,0,0,0-7.251-.747q-11.25,0-17.622,5.053t-6.372,13.843a18.212,18.212,0,0,0,2.593,9.58q2.592,4.308,9.712,10.283,1.054.879,3.076,2.549,23.906,20.039,23.906,33.926a29.639,29.639,0,0,1-1.889,10.371,38.472,38.472,0,0,1-5.669,10.02,43.11,43.11,0,0,1-15.952,12.613,48.247,48.247,0,0,1-20.61,4.438Q437.136,145.23,433.313,142.637ZM738,141.89q-5.581-2.812-5.581-10.81,0-.616.835-20.831t.834-39.9q0-21.357-1.274-33.794T728.9,17.613q12.041-.176,24.125-.615t12.349-.44q34.366,0,54.712,16.348T840.434,76.5a64.624,64.624,0,0,1-6.02,27.554,66.126,66.126,0,0,1-17.358,22.632,70.375,70.375,0,0,1-24.477,13.491,101.664,101.664,0,0,1-31.333,4.526Q743.579,144.7,738,141.89ZM759.136,30.929q-4.306.308-8.261.923-.616,18.633-.879,33.442t-.264,25.8q0,9.667.22,18.852t.747,17.886A68.089,68.089,0,0,0,759,129.41a66.841,66.841,0,0,0,8.393.527q24.521,0,39.595-13.711t15.073-35.948q0-22.06-14.941-35.86t-38.848-13.8Q763.443,30.621,759.136,30.929ZM183.285,141.89q-5.581-2.812-5.581-10.81,0-.616.835-20.831t.835-39.9q0-21.357-1.274-33.794t-3.911-18.941q12.041-.176,24.126-.615t12.348-.44q34.366,0,54.712,16.348T285.722,76.5a64.625,64.625,0,0,1-6.021,27.554,66.1,66.1,0,0,1-17.358,22.632,70.367,70.367,0,0,1-24.477,13.491,101.66,101.66,0,0,1-31.334,4.526Q188.867,144.7,183.285,141.89ZM204.423,30.929q-4.307.308-8.262.923-.616,18.633-.879,33.442t-.264,25.8q0,9.667.22,18.852t.747,17.886a68.106,68.106,0,0,0,8.305,1.582,66.851,66.851,0,0,0,8.393.527q24.521,0,39.6-13.711t15.073-35.948q0-22.06-14.942-35.86t-38.848-13.8Q208.729,30.621,204.423,30.929Zm464.284,113.16q-8.437-.265-12.568-.264-9.316,0-18.633.439-1.933.088-2.373.088-3.077,0-4.351-1.407t-1.274-4.922q0-1.845.439-9.4,1.407-27.246,1.407-51.064,0-23.643-.835-37.881t-2.593-21.357h11.163q20.566,0,42.275-1.319,4.659-.265,5.625-.264,7.12,0,9.756,1.582t2.637,5.625a16.9,16.9,0,0,1-.923,5.141,37.241,37.241,0,0,1-2.856,6.373,43.255,43.255,0,0,0-11.294-3.12,115.174,115.174,0,0,0-16.831-1.011q-4.219,0-15.645.264-2.813.088-4.307.087l-.7,38.848q2.373.177,5.1.176h8.614q11.69,0,19.292-.527a55.828,55.828,0,0,0,11.119-1.582,35.583,35.583,0,0,1,1.582,4.351,12.766,12.766,0,0,1,.527,3.384q0,4.219-2.725,6.064t-8.965,1.846q-2.021,0-9.976-.176t-13.755-.175q-4.394,0-6.767.044t-4.395.131q0,9.932-.22,21.138t-.66,24.566q.879,0,2.637.087,11.514.265,16.436.264a100.107,100.107,0,0,0,16.04-1.1,44.433,44.433,0,0,0,11.821-3.559,32.7,32.7,0,0,1,2.768,5.845,14.691,14.691,0,0,1,.835,4.614q0,4.658-3.076,6.548t-11.69,1.89Q677.144,144.352,668.707,144.088Zm-103.173,0q-8.437-.265-12.569-.264-9.316,0-18.633.439-1.933.088-2.373.088-3.075,0-4.351-1.407t-1.274-4.922q0-1.845.44-9.4,1.405-27.246,1.406-51.064,0-23.643-.835-37.881t-2.592-21.357h11.162q20.566,0,42.276-1.319,4.657-.265,5.625-.264,7.119,0,9.755,1.582t2.637,5.625a16.929,16.929,0,0,1-.922,5.141,37.319,37.319,0,0,1-2.857,6.373,43.255,43.255,0,0,0-11.294-3.12A115.166,115.166,0,0,0,564.3,31.325q-4.219,0-15.645.264-2.812.088-4.307.087l-.7,38.848q2.372.177,5.1.176h8.613q11.69,0,19.292-.527A55.827,55.827,0,0,0,587.77,68.59a35.585,35.585,0,0,1,1.582,4.351,12.731,12.731,0,0,1,.527,3.384q0,4.219-2.724,6.064t-8.965,1.846q-2.022,0-9.976-.176t-13.756-.175q-4.394,0-6.767.044t-4.395.131q0,9.932-.22,21.138t-.66,24.566q.88,0,2.637.087,11.514.265,16.436.264a100.106,100.106,0,0,0,16.04-1.1,44.414,44.414,0,0,0,11.822-3.559,32.633,32.633,0,0,1,2.768,5.845,14.665,14.665,0,0,1,.835,4.614q0,4.658-3.076,6.548t-11.689,1.89Q573.972,144.352,565.534,144.088Zm-217.157-2.506q-1.758-2.417-1.758-8.569,0-1.23.659-15.073t1.011-26.851q-16.875-29.619-28.125-44.736T303.466,30.8q2.109-7.3,5.273-11.03a9.372,9.372,0,0,1,7.294-3.736,7.279,7.279,0,0,1,4.131,1.231,16.07,16.07,0,0,1,3.956,4.306q.879,1.23,4.834,8.174,14.238,25.313,28.652,47.637,17.842-25.753,24.961-38.453t7.119-18.238a7.38,7.38,0,0,0-.131-1.45,4.687,4.687,0,0,0-.4-1.186,45.153,45.153,0,0,1,5.669-1.143,38.442,38.442,0,0,1,4.966-.352,7.906,7.906,0,0,1,5.317,1.626,5.864,5.864,0,0,1,1.89,4.7q0,4.57-21.358,35.244-13.1,18.808-21.182,30.762,0,2.109-.088,6.2t-.087,5.933a192.716,192.716,0,0,0,1.23,24.477q1.23,9.185,3.867,14.195a43.771,43.771,0,0,1-7.823,3.252A24.7,24.7,0,0,1,354.618,144Q350.135,144,348.377,141.583Z" transform="translate(22.58 32.932)"/>
      <g class="cls-7" transform="matrix(1, 0, 0, 1, 0, 0)">
        <path id="교차_4-3" data-name="교차 4" class="cls-3" d="M46.626,142.11A60.985,60.985,0,0,1,26.1,129.235,58.49,58.49,0,0,1,11.821,108.4,70.338,70.338,0,0,1,7.031,81.861,68.386,68.386,0,0,1,12.173,55.23,62.651,62.651,0,0,1,27.334,33.521,65.458,65.458,0,0,1,50.009,19.547,80.962,80.962,0,0,1,78.134,14.8q29.8,0,47.725,16.875T143.789,76.5a69.846,69.846,0,0,1-4.878,26.06A66.13,66.13,0,0,1,124.717,124.4a70.76,70.76,0,0,1-23.906,16.611,75.059,75.059,0,0,1-29.18,5.537A69.611,69.611,0,0,1,46.626,142.11Zm-7.34-99.184Q25.4,57.076,25.4,80.631q0,22.764,13.447,37.046t34.98,14.282q22.851,0,37.222-15.117T125.42,77.73q0-22.236-13.359-35.6T76.289,28.776Q53.173,28.776,39.287,42.926Zm394.026,99.712a8.6,8.6,0,0,1-3.823-7.6,14.591,14.591,0,0,1,.923-4.878,27.346,27.346,0,0,1,2.857-5.581,33.159,33.159,0,0,0,7.69,2.988,34.518,34.518,0,0,0,8.306.967q10.458,0,16.479-4.7a15.359,15.359,0,0,0,6.021-12.788q0-9.669-15.733-22.412l-.088-.088q-.263-.175-.79-.616-22.764-18.193-22.764-32.168A30.521,30.521,0,0,1,435.2,43.1a38.453,38.453,0,0,1,8-11.426A57.624,57.624,0,0,1,459.988,20.03a44.873,44.873,0,0,1,18.456-4q6.857,0,10.283,2.286a7.688,7.688,0,0,1,3.428,6.855,11.066,11.066,0,0,1-1.143,4.174,49.759,49.759,0,0,1-3.34,6.109,40.007,40.007,0,0,0-6.987-2.154,35.237,35.237,0,0,0-7.251-.747q-11.25,0-17.622,5.053t-6.372,13.843a18.212,18.212,0,0,0,2.593,9.58q2.592,4.308,9.712,10.283,1.054.879,3.076,2.549,23.906,20.039,23.906,33.926a29.639,29.639,0,0,1-1.889,10.371,38.472,38.472,0,0,1-5.669,10.02,43.11,43.11,0,0,1-15.952,12.613,48.247,48.247,0,0,1-20.61,4.438Q437.136,145.23,433.313,142.637ZM738,141.89q-5.581-2.812-5.581-10.81,0-.616.835-20.831t.834-39.9q0-21.357-1.274-33.794T728.9,17.613q12.041-.176,24.125-.615t12.349-.44q34.366,0,54.712,16.348T840.434,76.5a64.624,64.624,0,0,1-6.02,27.554,66.126,66.126,0,0,1-17.358,22.632,70.375,70.375,0,0,1-24.477,13.491,101.664,101.664,0,0,1-31.333,4.526Q743.579,144.7,738,141.89ZM759.136,30.929q-4.306.308-8.261.923-.616,18.633-.879,33.442t-.264,25.8q0,9.667.22,18.852t.747,17.886A68.089,68.089,0,0,0,759,129.41a66.841,66.841,0,0,0,8.393.527q24.521,0,39.595-13.711t15.073-35.948q0-22.06-14.941-35.86t-38.848-13.8Q763.443,30.621,759.136,30.929ZM183.285,141.89q-5.581-2.812-5.581-10.81,0-.616.835-20.831t.835-39.9q0-21.357-1.274-33.794t-3.911-18.941q12.041-.176,24.126-.615t12.348-.44q34.366,0,54.712,16.348T285.722,76.5a64.625,64.625,0,0,1-6.021,27.554,66.1,66.1,0,0,1-17.358,22.632,70.367,70.367,0,0,1-24.477,13.491,101.66,101.66,0,0,1-31.334,4.526Q188.867,144.7,183.285,141.89ZM204.423,30.929q-4.307.308-8.262.923-.616,18.633-.879,33.442t-.264,25.8q0,9.667.22,18.852t.747,17.886a68.106,68.106,0,0,0,8.305,1.582,66.851,66.851,0,0,0,8.393.527q24.521,0,39.6-13.711t15.073-35.948q0-22.06-14.942-35.86t-38.848-13.8Q208.729,30.621,204.423,30.929Zm464.284,113.16q-8.437-.265-12.568-.264-9.316,0-18.633.439-1.933.088-2.373.088-3.077,0-4.351-1.407t-1.274-4.922q0-1.845.439-9.4,1.407-27.246,1.407-51.064,0-23.643-.835-37.881t-2.593-21.357h11.163q20.566,0,42.275-1.319,4.659-.265,5.625-.264,7.12,0,9.756,1.582t2.637,5.625a16.9,16.9,0,0,1-.923,5.141,37.241,37.241,0,0,1-2.856,6.373,43.255,43.255,0,0,0-11.294-3.12,115.174,115.174,0,0,0-16.831-1.011q-4.219,0-15.645.264-2.813.088-4.307.087l-.7,38.848q2.373.177,5.1.176h8.614q11.69,0,19.292-.527a55.828,55.828,0,0,0,11.119-1.582,35.583,35.583,0,0,1,1.582,4.351,12.766,12.766,0,0,1,.527,3.384q0,4.219-2.725,6.064t-8.965,1.846q-2.021,0-9.976-.176t-13.755-.175q-4.394,0-6.767.044t-4.395.131q0,9.932-.22,21.138t-.66,24.566q.879,0,2.637.087,11.514.265,16.436.264a100.107,100.107,0,0,0,16.04-1.1,44.433,44.433,0,0,0,11.821-3.559,32.7,32.7,0,0,1,2.768,5.845,14.691,14.691,0,0,1,.835,4.614q0,4.658-3.076,6.548t-11.69,1.89Q677.144,144.352,668.707,144.088Zm-103.173,0q-8.437-.265-12.569-.264-9.316,0-18.633.439-1.933.088-2.373.088-3.075,0-4.351-1.407t-1.274-4.922q0-1.845.44-9.4,1.405-27.246,1.406-51.064,0-23.643-.835-37.881t-2.592-21.357h11.162q20.566,0,42.276-1.319,4.657-.265,5.625-.264,7.119,0,9.755,1.582t2.637,5.625a16.929,16.929,0,0,1-.922,5.141,37.319,37.319,0,0,1-2.857,6.373,43.255,43.255,0,0,0-11.294-3.12A115.166,115.166,0,0,0,564.3,31.325q-4.219,0-15.645.264-2.812.088-4.307.087l-.7,38.848q2.372.177,5.1.176h8.613q11.69,0,19.292-.527A55.827,55.827,0,0,0,587.77,68.59a35.585,35.585,0,0,1,1.582,4.351,12.731,12.731,0,0,1,.527,3.384q0,4.219-2.724,6.064t-8.965,1.846q-2.022,0-9.976-.176t-13.756-.175q-4.394,0-6.767.044t-4.395.131q0,9.932-.22,21.138t-.66,24.566q.88,0,2.637.087,11.514.265,16.436.264a100.106,100.106,0,0,0,16.04-1.1,44.414,44.414,0,0,0,11.822-3.559,32.633,32.633,0,0,1,2.768,5.845,14.665,14.665,0,0,1,.835,4.614q0,4.658-3.076,6.548t-11.689,1.89Q573.972,144.352,565.534,144.088Zm-217.157-2.506q-1.758-2.417-1.758-8.569,0-1.23.659-15.073t1.011-26.851q-16.875-29.619-28.125-44.736T303.466,30.8q2.109-7.3,5.273-11.03a9.372,9.372,0,0,1,7.294-3.736,7.279,7.279,0,0,1,4.131,1.231,16.07,16.07,0,0,1,3.956,4.306q.879,1.23,4.834,8.174,14.238,25.313,28.652,47.637,17.842-25.753,24.961-38.453t7.119-18.238a7.38,7.38,0,0,0-.131-1.45,4.687,4.687,0,0,0-.4-1.186,45.153,45.153,0,0,1,5.669-1.143,38.442,38.442,0,0,1,4.966-.352,7.906,7.906,0,0,1,5.317,1.626,5.864,5.864,0,0,1,1.89,4.7q0,4.57-21.358,35.244-13.1,18.808-21.182,30.762,0,2.109-.088,6.2t-.087,5.933a192.716,192.716,0,0,0,1.23,24.477q1.23,9.185,3.867,14.195a43.771,43.771,0,0,1-7.823,3.252A24.7,24.7,0,0,1,354.618,144Q350.135,144,348.377,141.583Z" transform="translate(22.58 32.93)"/>
      </g>
    </g>
    <path id="패스_25" data-name="패스 25" class="cls-5" d="M596.4,309.509s8.06-4.207,15.647-14.631,16.39-30.006,16.39-30.006" transform="translate(-512.5 -175.093)"/>
  </g>
</svg>
