<svg xmlns="http://www.w3.org/2000/svg" xmlns:xlink="http://www.w3.org/1999/xlink" width="1920" height="1080" viewBox="0 0 1920 1080">
  <defs>
    <clipPath id="clip-Pause_Menu-Frame">
      <rect width="1920" height="1080"/>
    </clipPath>
  </defs>
  <g id="Pause_Menu-Frame" data-name="Pause Menu-Frame" clip-path="url(#clip-Pause_Menu-Frame)">
    <circle id="타원_138" data-name="타원 138" cx="490.5" cy="490.5" r="490.5" transform="translate(478.735 49)" fill="none" stroke="#f0efdd" stroke-width="2"/>
    <path id="패스_193" data-name="패스 193" d="M575.5,0C893.34,0,1151,257.66,1151,575.5S893.34,1151,575.5,1151,0,893.34,0,575.5,257.66,0,575.5,0Z" transform="translate(394.235 -35.5)" fill="none" stroke="#f0efdd" stroke-width="7"/>
    <path id="패스_194" data-name="패스 194" d="M2386.166,3257.583s18.886,39.694,0,79.388-77.371,103.477-85,187.436,59.569,117.747,50.826,143.3c-8.1,20.855-38.97,5.191-30.6-14.778,8.433-20.131,54.542.35,64.779,15.218" transform="translate(258.551 -3941.517) rotate(30)" fill="none" stroke="#f0efdd" stroke-linecap="round" stroke-width="3"/>
    <path id="패스_195" data-name="패스 195" d="M2308.953,3257.583s-18.886,39.693,0,79.388,77.371,103.477,85,187.437-59.569,117.747-50.826,143.3c8.1,20.855,38.969,5.191,30.6-14.779-8.433-20.131-54.542.35-64.779,15.218" transform="translate(-2386.776 -1594.958) rotate(-30)" fill="none" stroke="#f0efdd" stroke-linecap="round" stroke-width="3"/>
    <path id="패스_196" data-name="패스 196" d="M0,0S9.071,5.254,18.071,5.254,36,0,36,0s-5.256,9-5.256,18S36,36,36,36s-9-5.26-18-5.26S0,36,0,36s5.294-8.969,5.294-17.969S0,0,0,0Z" transform="translate(437.558 514.044) rotate(45)" fill="#f0efdd"/>
    <path id="패스_197" data-name="패스 197" d="M0,0S9.071,5.254,18.071,5.254,36,0,36,0s-5.256,9-5.256,18S36,36,36,36s-9-5.26-18-5.26S0,36,0,36s5.294-8.969,5.294-17.969S0,0,0,0Z" transform="translate(1500.912 514.044) rotate(45)" fill="#f0efdd"/>
    <g id="타원_139" data-name="타원 139" transform="translate(942.235 106.5)" fill="#fff" stroke="#fff" stroke-width="4">
      <circle cx="27.5" cy="27.5" r="27.5" stroke="none"/>
      <circle cx="27.5" cy="27.5" r="25.5" fill="none"/>
    </g>
    <g id="그룹_91" data-name="그룹 91" transform="translate(10.235 -4149.936)">
      <path id="패스_58" data-name="패스 58" d="M977.882,4311.6c-.191-.229-1.658-14.681,18.407-30.2s53.728-18.76,54.3-17.156-27.192,13.51-36.553,18.979-13.567,8.2-24.295,16.828S978.073,4311.825,977.882,4311.6Z" transform="translate(21.352 -1)" fill="none" stroke="#fff" stroke-width="3"/>
      <path id="패스_59" data-name="패스 59" d="M990.325,4311.67c-.908-2.108,27.534-21.229,41.372-27.148s33.773-14.8,68.216-16.727,69.685.646,69.932,2.8-59.808,20.806-99.228,30.657S991.233,4313.778,990.325,4311.67Z" transform="translate(9 -0.907)" fill="none" stroke="#fff" stroke-width="3"/>
    </g>
    <g id="그룹_92" data-name="그룹 92" transform="translate(-248.75 -4149.936)">
      <path id="패스_58-2" data-name="패스 58" d="M1050.507,4311.6c.191-.229,1.658-14.681-18.407-30.2s-53.728-18.76-54.305-17.156,27.192,13.51,36.553,18.979,13.567,8.2,24.295,16.828S1050.316,4311.825,1050.507,4311.6Z" transform="translate(128.243 -1)" fill="none" stroke="#fff" stroke-width="3"/>
      <path id="패스_59-2" data-name="패스 59" d="M1169.825,4311.67c.908-2.108-27.534-21.229-41.372-27.148s-33.773-14.8-68.216-16.727-69.685.646-69.932,2.8,59.808,20.806,99.228,30.657S1168.917,4313.778,1169.825,4311.67Z" transform="translate(8.834 -0.907)" fill="none" stroke="#fff" stroke-width="3"/>
    </g>
    <path id="패스_198" data-name="패스 198" d="M0,0S49.061-20.978,98.061-20.978,196,0,196,0" transform="translate(871.235 37.252)" fill="none" stroke="#f0efdd" stroke-linecap="round" stroke-width="3"/>
    <line id="선_109" data-name="선 109" y2="24.764" transform="translate(969.735 2)" fill="none" stroke="#f0efdd" stroke-linecap="round" stroke-width="4"/>
    <circle id="타원_140" data-name="타원 140" cx="6.5" cy="6.5" r="6.5" transform="translate(431.235 582.5)" fill="#f0efdd"/>
    <circle id="타원_141" data-name="타원 141" cx="6.5" cy="6.5" r="6.5" transform="translate(1494.235 582.5)" fill="#f0efdd"/>
    <path id="패스_199" data-name="패스 199" d="M0,0S36.969,9.442,73.469,9.442,146,0,146,0" transform="translate(469.912 723.339) rotate(60)" fill="none" stroke="#fff" stroke-linecap="round" stroke-width="2"/>
    <path id="패스_200" data-name="패스 200" d="M0,0S36.969,9.442,73.469,9.442,146,0,146,0" transform="translate(1395.279 849.778) rotate(-60)" fill="none" stroke="#fff" stroke-linecap="round" stroke-width="2"/>
    <path id="제외_5" data-name="제외 5" d="M42-3396a41.739,41.739,0,0,1-16.349-3.3,41.865,41.865,0,0,1-13.35-9,41.86,41.86,0,0,1-9-13.35A41.737,41.737,0,0,1,0-3438a41.737,41.737,0,0,1,3.3-16.348,41.861,41.861,0,0,1,9-13.35,41.865,41.865,0,0,1,13.35-9A41.739,41.739,0,0,1,42-3480a41.737,41.737,0,0,1,16.348,3.3,41.865,41.865,0,0,1,13.35,9,41.861,41.861,0,0,1,9,13.35A41.739,41.739,0,0,1,84-3438a41.737,41.737,0,0,1-3.3,16.348,41.86,41.86,0,0,1-9,13.35,41.865,41.865,0,0,1-13.35,9A41.737,41.737,0,0,1,42-3396Zm0-56.173A14.188,14.188,0,0,0,27.828-3438,14.188,14.188,0,0,0,42-3423.828,14.188,14.188,0,0,0,56.173-3438,14.188,14.188,0,0,0,42-3452.172Z" transform="translate(594.235 4393.5)" fill="#f0efdd"/>
    <path id="제외_6" data-name="제외 6" d="M42-3396a41.739,41.739,0,0,1-16.349-3.3,41.865,41.865,0,0,1-13.35-9,41.86,41.86,0,0,1-9-13.35A41.737,41.737,0,0,1,0-3438a41.737,41.737,0,0,1,3.3-16.348,41.861,41.861,0,0,1,9-13.35,41.865,41.865,0,0,1,13.35-9A41.739,41.739,0,0,1,42-3480a41.737,41.737,0,0,1,16.348,3.3,41.865,41.865,0,0,1,13.35,9,41.861,41.861,0,0,1,9,13.35A41.739,41.739,0,0,1,84-3438a41.737,41.737,0,0,1-3.3,16.348,41.86,41.86,0,0,1-9,13.35,41.865,41.865,0,0,1-13.35,9A41.737,41.737,0,0,1,42-3396Zm0-56.173A14.188,14.188,0,0,0,27.828-3438,14.188,14.188,0,0,0,42-3423.828,14.188,14.188,0,0,0,56.173-3438,14.188,14.188,0,0,0,42-3452.172Z" transform="translate(1260.235 4393.5)" fill="#f0efdd"/>
    <path id="패스_201" data-name="패스 201" d="M2977.848,3521.615s14.256-20.176,24.125-19.958,17.546,14.694,23.029,19.958,10.965,10.089,24.125,9.431,24.344-7.677,23.686-18.2-6.141-15.351-14.036-15.132-13.751,5.335-12.87,12.864,6.469,8.694,10.309,8,8.953-5.7,2.561-10.513" transform="translate(-1924.613 -2467.703)" fill="none" stroke="#f0efdd" stroke-linecap="round" stroke-width="3"/>
    <path id="패스_202" data-name="패스 202" d="M3072.84,3521.615s-14.256-20.176-24.125-19.958-17.546,14.694-23.029,19.958-10.965,10.089-24.125,9.431-24.344-7.677-23.686-18.2,6.141-15.351,14.036-15.132,13.751,5.335,12.87,12.864-6.469,8.694-10.309,8-8.953-5.7-2.561-10.513" transform="translate(-2187.605 -2467.703)" fill="none" stroke="#f0efdd" stroke-linecap="round" stroke-width="3"/>
    <circle id="타원_146" data-name="타원 146" cx="9.5" cy="9.5" r="9.5" transform="translate(959.735 1046.5)" fill="#f0efdd"/>
    <path id="빼기_18" data-name="빼기 18" d="M132.531-3347.468h0L.321-3347.79,0-3480l132.532,132.532h0ZM11-3450.979h0l.228,93.521,93.521.228Z" transform="translate(45.676 4394.595)" fill="#f0efdd"/>
    <path id="빼기_19" data-name="빼기 19" d="M132.531-3347.468h0L.321-3347.79,0-3480l132.532,132.532h0ZM11-3450.979h0l.228,93.521,93.521.228Z" transform="translate(-3301.792 37.252) rotate(90)" fill="#f0efdd"/>
    <path id="빼기_20" data-name="빼기 20" d="M132.531-3347.468h0L.321-3347.79,0-3480l132.532,132.532h0ZM11-3450.979h0l.228,93.521,93.521.228Z" transform="translate(1874.323 -3310.216) rotate(180)" fill="#f0efdd"/>
    <path id="빼기_21" data-name="빼기 21" d="M132.531-3347.468h0L.321-3347.79,0-3480l132.532,132.532h0ZM11-3450.979h0l.228,93.521,93.521.228Z" transform="translate(5221.792 1047.127) rotate(-90)" fill="#f0efdd"/>
  </g>
</svg>
