<svg xmlns="http://www.w3.org/2000/svg" xmlns:xlink="http://www.w3.org/1999/xlink" width="971" height="452" viewBox="0 0 971 452">
  <defs>
    <clipPath id="clip-Seed_Wheel_-_Default">
      <rect width="971" height="452"/>
    </clipPath>
  </defs>
  <g id="Seed_Wheel_-_Default" data-name="Seed Wheel - Default" clip-path="url(#clip-Seed_Wheel_-_Default)">
    <g id="그룹_16" data-name="그룹 16" transform="translate(7.163 -4.852) rotate(-11)">
      <g id="그룹_15" data-name="그룹 15" transform="translate(0 52.594) rotate(-13)">
        <path id="패스_92" data-name="패스 92" d="M233.8,506.507s-38.726-28.8-59.569-99.549c-5.753-19.526-20.4-79.754-26.515-111.034C131.939,215.233,126.2,137.05,126.2,137.05s-19.219,103.837-6.6,158.661,49.546,132.736,49.546,132.736S92.86,331.631,61.035,237.887.938,0,.938,0s-4.116,158.029,4.9,217.042S34.361,344.82,85.263,408.207,233.8,506.507,233.8,506.507Z" transform="translate(0 0)" fill="#efedd4"/>
        <path id="패스_93" data-name="패스 93" d="M43.181,137.718S19.738,121.343,7.839,78.208,1.124,0,1.124,0,12.549,41.039,22.541,61.383A234.941,234.941,0,0,0,43.213,95.865Z" transform="translate(42.73 357.838) rotate(-14)" fill="#efedd4"/>
      </g>
      <path id="패스_94" data-name="패스 94" d="M50.83,217.81s-13.23-17.6-26.455-45.388C18,159.027,10.181,144.378,6.7,125.315-3.772,67.9,1.16,0,1.16,0S35.472,63.644,43.186,106.705,50.83,217.81,50.83,217.81Z" transform="translate(65.655 48.346)" fill="#efedd4"/>
    </g>
    <g id="그룹_91" data-name="그룹 91" transform="translate(859.632 531.233) rotate(-169)">
      <g id="그룹_15-2" data-name="그룹 15" transform="translate(113.939 0) rotate(13)">
        <path id="패스_92-2" data-name="패스 92" d="M233.8,0s-38.726,28.8-59.569,99.549c-5.753,19.526-20.4,79.754-26.515,111.034C131.939,291.273,126.2,369.456,126.2,369.456s-19.219-103.837-6.6-158.661S169.143,78.059,169.143,78.059,92.86,174.876,61.035,268.62.938,506.507.938,506.507s-4.116-158.029,4.9-217.042S34.361,161.687,85.263,98.3,233.8,0,233.8,0Z" transform="translate(0)" fill="#efedd4"/>
        <path id="패스_93-2" data-name="패스 93" d="M43.181,0S19.738,16.375,7.839,59.509s-6.715,78.208-6.715,78.208S12.549,96.679,22.541,76.335A234.941,234.941,0,0,1,43.213,41.852Z" transform="translate(76.047 15.042) rotate(14)" fill="#efedd4"/>
      </g>
      <path id="패스_94-2" data-name="패스 94" d="M50.83,0S37.6,17.6,24.376,45.388C18,58.783,10.181,73.432,6.7,92.495-3.772,149.91,1.16,217.81,1.16,217.81S35.472,154.166,43.186,111.1,50.83,0,50.83,0Z" transform="translate(65.655 279.962)" fill="#efedd4"/>
    </g>
    <g id="그룹_90" data-name="그룹 90" transform="translate(294.269 39.873)">
      <g id="패스_152" data-name="패스 152" transform="translate(0 0)" fill="rgba(255,255,255,0.48)">
        <path d="M 190.7131195068359 372.9262084960938 C 90.24045562744141 372.9262084960938 8.500008583068848 291.1857604980469 8.500008583068848 190.7130889892578 C 8.500008583068848 90.240478515625 90.24045562744141 8.500033378601074 190.7131195068359 8.500033378601074 C 291.185791015625 8.500033378601074 372.9262390136719 90.240478515625 372.9262390136719 190.7130889892578 C 372.9262390136719 291.1857604980469 291.185791015625 372.9262084960938 190.7131195068359 372.9262084960938 Z" stroke="none"/>
        <path d="M 190.7131195068359 17.00003051757812 C 94.92739868164062 17.00003051757812 17 94.9273681640625 17 190.7130889892578 C 17 286.4988403320312 94.92739868164062 364.4261474609375 190.7131195068359 364.4261474609375 C 286.4988403320312 364.4261474609375 364.4262390136719 286.4988403320312 364.4262390136719 190.7130889892578 C 364.4262390136719 94.9273681640625 286.4988403320312 17.00003051757812 190.7131195068359 17.00003051757812 M 190.7131195068359 3.0517578125e-05 C 296.0410461425781 3.0517578125e-05 381.4262390136719 85.38516235351562 381.4262390136719 190.7130889892578 C 381.4262390136719 296.041015625 296.0410461425781 381.4261474609375 190.7131195068359 381.4261474609375 C 85.38519287109375 381.4261474609375 0 296.041015625 0 190.7130889892578 C 0 85.38516235351562 85.38519287109375 3.0517578125e-05 190.7131195068359 3.0517578125e-05 Z" stroke="none" fill="#646464"/>
      </g>
      <ellipse id="타원_104" data-name="타원 104" cx="58.994" cy="58.994" rx="58.994" ry="58.994" transform="translate(130.194 131.211)" fill="#575757" stroke="#646464" stroke-width="15"/>
      <line id="선_94" data-name="선 94" y2="117.821" transform="translate(190.602 14.74)" fill="#fff" stroke="#646464" stroke-width="12"/>
      <line id="선_95" data-name="선 95" x1="106.701" y2="71.562" transform="translate(37.221 213.418)" fill="#fff" stroke="#646464" stroke-width="12"/>
      <line id="선_96" data-name="선 96" x2="96.227" y2="69.015" transform="translate(242.127 215.965)" fill="#fff" stroke="#646464" stroke-width="12"/>
    </g>
  </g>
</svg>
