<svg xmlns="http://www.w3.org/2000/svg" xmlns:xlink="http://www.w3.org/1999/xlink" width="350" height="350" viewBox="0 0 350 350">
  <defs>
    <clipPath id="clip-SUN">
      <rect width="350" height="350"/>
    </clipPath>
  </defs>
  <g id="SUN" clip-path="url(#clip-SUN)">
    <circle id="타원_119" data-name="타원 119" cx="155" cy="155" r="155" transform="translate(20 20)" fill="none"/>
    <path id="다각형_28" data-name="다각형 28" d="M134.5,0,269,232H0Z" transform="translate(41 20)" fill="#ffe434"/>
    <g id="그룹_26" data-name="그룹 26" transform="translate(111.277 -63.451) rotate(30)">
      <path id="다각형_34" data-name="다각형 34" d="M133.732,0,267.464,232.164H0Z" transform="translate(40.998 19.858)" fill="#ff4c00"/>
      <path id="패스_145" data-name="패스 145" d="M133.734,0,268.639,231.489,0,230.81Z" transform="translate(240.886 -19.647) rotate(60)" fill="#ff4c00"/>
    </g>
    <path id="다각형_60" data-name="다각형 60" d="M134.5,0,269,232H0Z" transform="translate(41 20)" fill="#ffbc00" style="mix-blend-mode: overlay;isolation: isolate"/>
    <path id="다각형_33" data-name="다각형 33" d="M134.5,0,269,232H0Z" transform="translate(241.918 -18.961) rotate(60)" fill="#ffe434"/>
    <g id="타원_125" data-name="타원 125" transform="translate(110 110)" fill="#fc0" stroke="#fff797" stroke-width="5">
      <circle cx="65" cy="65" r="65" stroke="none"/>
      <circle cx="65" cy="65" r="62.5" fill="none"/>
    </g>
    <path id="합치기_38" data-name="합치기 38" d="M-1370-4810h11l-5.5,16Zm0,0,5.5-16,5.5,16Z" transform="translate(4447.899 2516.326) rotate(-45)" fill="red"/>
    <path id="합치기_39" data-name="합치기 39" d="M-1370-4810h11l-5.5,16Zm0,0,5.5-16,5.5,16Z" transform="matrix(0.966, -0.259, 0.259, 0.966, 2704.794, 4337.853)" fill="red"/>
    <path id="합치기_40" data-name="합치기 40" d="M-1370-4810h11l-5.5,16Zm0,0,5.5-16,5.5,16Z" transform="matrix(0.966, 0.259, -0.259, 0.966, 283.955, 5044.17)" fill="red"/>
    <path id="합치기_41" data-name="합치기 41" d="M-1370-4810h11l-5.5,16Zm0,0,5.5-16,5.5,16Z" transform="translate(-2165.468 4445.021) rotate(45)" fill="red"/>
    <path id="합치기_42" data-name="합치기 42" d="M-1370-4810h11l-5.5,16Zm0,0,5.5-16,5.5,16Z" transform="matrix(0.259, 0.966, -0.966, 0.259, -3988.266, 2703.188)" fill="red"/>
    <path id="합치기_43" data-name="합치기 43" d="M-1370-4810h11l-5.5,16Zm0,0,5.5-16,5.5,16Z" transform="matrix(0.259, -0.966, 0.966, 0.259, 5047.047, 67.177)" fill="red"/>
    <path id="합치기_44" data-name="합치기 44" d="M-1370-4810h11l-5.5,16Zm0,0,5.5-16,5.5,16Z" transform="matrix(-0.259, 0.966, -0.966, -0.259, -4694.583, 280.349)" fill="red"/>
    <path id="합치기_45" data-name="합치기 45" d="M-1370-4810h11l-5.5,16Zm0,0,5.5-16,5.5,16Z" transform="matrix(-0.966, 0.259, -0.259, -0.966, -2354.216, -3991.528)" fill="red"/>
    <path id="합치기_46" data-name="합치기 46" d="M-1370-4810h11l-5.5,16Zm0,0,5.5-16,5.5,16Z" transform="translate(-4097.162 -2169.133) rotate(135)" fill="red"/>
    <path id="합치기_47" data-name="합치기 47" d="M-1370-4810h11l-5.5,16Zm0,0,5.5-16,5.5,16Z" transform="matrix(-0.259, -0.966, 0.966, -0.259, 4340.73, -2353.662)" fill="red"/>
    <path id="합치기_48" data-name="합치기 48" d="M-1370-4810h11l-5.5,16Zm0,0,5.5-16,5.5,16Z" transform="translate(2519.122 -4098.827) rotate(-135)" fill="red"/>
    <path id="합치기_49" data-name="합치기 49" d="M-1370-4810h11l-5.5,16Zm0,0,5.5-16,5.5,16Z" transform="matrix(-0.966, -0.259, 0.259, -0.966, 68.7, -4698.845)" fill="red"/>
  </g>
</svg>
