<svg xmlns="http://www.w3.org/2000/svg" xmlns:xlink="http://www.w3.org/1999/xlink" width="85" height="85" viewBox="0 0 85 85">
  <defs>
    <clipPath id="clip-Arrow-L">
      <rect width="85" height="85"/>
    </clipPath>
  </defs>
  <g id="Arrow-L" clip-path="url(#clip-Arrow-L)">
    <g id="그룹_6" data-name="그룹 6" transform="translate(863.5 441) rotate(180)">
      <g id="다각형_25" data-name="다각형 25" transform="translate(851.5 363.5) rotate(90)" fill="none">
        <path d="M35,0,70,61H0Z" stroke="none"/>
        <path d="M 35 10.04684066772461 L 8.633430480957031 56 L 61.36656951904297 56 L 35 10.04684066772461 M 35 0 L 70 61 L 0 61 L 35 0 Z" stroke="none" fill="#fff"/>
      </g>
      <path id="합치기_36" data-name="합치기 36" d="M8.5-2986a6,6,0,0,1-6-6,6,6,0,0,1,6-6v0a6,6,0,0,1,6,6,6,6,0,0,1-6,6v0Z" transform="translate(807 3390.5)" fill="none" stroke="#fff" stroke-width="5"/>
    </g>
  </g>
</svg>
