<svg xmlns="http://www.w3.org/2000/svg" xmlns:xlink="http://www.w3.org/1999/xlink" width="80" height="80" viewBox="0 0 80 80">
  <defs>
    <radialGradient id="radial-gradient" cx="0.5" cy="0.5" r="0.6" gradientTransform="translate(0 -0.06) scale(1 1.121)" gradientUnits="objectBoundingBox">
      <stop offset="0" stop-color="#131313" stop-opacity="0.322"/>
      <stop offset="0.382" stop-color="#282828" stop-opacity="0.549"/>
      <stop offset="0.619" stop-color="#3e1c1c" stop-opacity="0.682"/>
      <stop offset="1" stop-color="#720000"/>
    </radialGradient>
    <clipPath id="clip-Heart_Empty">
      <rect width="80" height="80"/>
    </clipPath>
  </defs>
  <g id="Heart_Empty" data-name="Heart – Empty" clip-path="url(#clip-Heart_Empty)">
    <g id="패스_153" data-name="패스 153" transform="translate(8.932 10.315)" fill="url(#radial-gradient)">
      <path d="M 31.06597709655762 57.06755828857422 C 23.36515998840332 51.77632904052734 16.99576759338379 46.44881439208984 12.12496566772461 41.2236328125 C 7.633932590484619 36.40585708618164 4.398110389709473 31.66130065917969 2.507377147674561 27.12175559997559 C 0.9167993068695068 23.30157852172852 0.2122993171215057 19.58027839660645 0.4134993255138397 16.0613899230957 C 0.5921993255615234 12.93601226806641 1.510032653808594 10.04930114746094 3.067788124084473 7.713334083557129 C 5.477055072784424 4.100456237792969 9.220732688903809 2.028367519378662 13.33889961242676 2.028367519378662 C 16.10085487365723 2.028367519378662 18.95893287658691 2.979945421218872 21.6041431427002 4.780211925506592 C 24.65194320678711 6.85447883605957 27.39830017089844 9.986400604248047 29.76694297790527 14.0890007019043 L 31.06597709655762 16.3390007019043 L 32.36500930786133 14.0890007019043 C 34.74188995361328 9.972134590148926 37.49458694458008 6.829200744628906 40.5466423034668 4.747523307800293 C 43.19475555419922 2.941356420516968 46.05325317382812 1.986667513847351 48.8131103515625 1.986667513847351 C 52.92021179199219 1.986667513847351 56.65579986572266 4.056156635284424 59.06204223632812 7.664500713348389 C 60.62334442138672 10.00577831268311 61.54331207275391 12.90028953552246 61.72249984741211 16.03510093688965 C 61.92419815063477 19.56377792358398 61.21833419799805 23.29392242431641 59.62451171875 27.12193489074707 C 57.73384475708008 31.66130065917969 54.49802017211914 36.40585708618164 50.00698852539062 41.2236328125 C 45.13618850708008 46.44881439208984 38.76679229736328 51.77632904052734 31.06597709655762 57.06755828857422 Z" stroke="none"/>
      <path d="M 31.06597709655762 55.24367523193359 C 38.29626846313477 50.20835876464844 44.29272079467773 45.15380477905273 48.9097785949707 40.20083999633789 C 53.27882766723633 35.51391220092773 56.41792678833008 30.9194393157959 58.23973846435547 26.54536247253418 C 59.74567794799805 22.92845153808594 60.41358947753906 19.42108917236328 60.22494125366211 16.12070083618164 C 60.06097793579102 13.2523136138916 59.22731399536133 10.61597633361816 57.8140754699707 8.496713638305664 C 55.69083786010742 5.312763214111328 52.41011428833008 3.486675977706909 48.81311416625977 3.486675977706909 C 46.35605239868164 3.486675977706909 43.78981399536133 4.351175785064697 41.39185333251953 5.986725807189941 C 38.52740097045898 7.940463542938232 35.92739105224609 10.91878795623779 33.6640510559082 14.8390007019043 L 31.06597709655762 19.3389892578125 L 28.4679012298584 14.8390007019043 C 26.21306419372559 10.93352603912354 23.61981391906738 7.966475963592529 20.76018905639648 6.020276069641113 C 18.36483955383301 4.390063285827637 15.79860210418701 3.528375864028931 13.33890247344971 3.528375864028931 C 9.730827331542969 3.528375864028931 6.442014694213867 5.357063293457031 4.315752029418945 8.545551300048828 C 2.906052112579346 10.65951347351074 2.074514627456665 13.28805065155029 1.911052107810974 16.14702606201172 C 1.722902059555054 19.43760108947754 2.389464616775513 22.93611335754395 3.892064571380615 26.5450267791748 C 5.714026927947998 30.9194393157959 8.853127479553223 35.51391220092773 13.22217750549316 40.20083999633789 C 17.83923149108887 45.15380477905273 23.83568572998047 50.20835876464844 31.06597709655762 55.24367523193359 M 31.06597709655762 58.88372421264648 C 13.85272693634033 47.2087516784668 4.825052261352539 36.58767700195312 1.122677087783813 27.69848823547363 C -5.227100372314453 12.44776153564453 2.876995086669922 0.5283697247505188 13.33889675140381 0.5283697247505188 C 19.21866798400879 0.5283697247505188 25.84129333496094 4.289587497711182 31.06597709655762 13.3390007019043 C 36.30757522583008 4.260298728942871 42.93656921386719 0.4866723120212555 48.81311798095703 0.4866723120212555 C 59.2775993347168 0.4866723120212555 67.36087036132812 12.44339942932129 61.00927734375 27.69848823547363 C 57.30690383911133 36.58767700195312 48.27922821044922 47.2087516784668 31.06597709655762 58.88372421264648 Z" stroke="none" fill="#720000"/>
    </g>
  </g>
</svg>
